<svg xmlns="http://www.w3.org/2000/svg" width="25.895" height="25.898" viewBox="0 0 25.895 25.898"><defs><style>.a{fill:#bcbcbc;}</style></defs><g transform="translate(-0.023 0)"><g transform="translate(0.023 0)"><path class="a" d="M25.444,9.219A1.875,1.875,0,0,0,24.3,8.61h0L17.42,7.658,14.7,1.15a1.869,1.869,0,0,0-3.45,0L8.523,7.658,1.64,8.609a1.875,1.875,0,0,0-.989,3.256L5.837,16.49,4.771,23.746a1.871,1.871,0,0,0,2.9,1.824l5.3-3.6,5.3,3.607a1.871,1.871,0,0,0,2.9-1.824l-1.065-7.259,5.186-4.624A1.875,1.875,0,0,0,25.444,9.219ZM18.5,15.445a.925.925,0,0,0-.3.825l1.11,7.769-5.819-3.957a.925.925,0,0,0-1.04,0L6.6,24.015l1.138-7.748a.925.925,0,0,0-.3-.821l-5.549-5L9.3,9.422a.925.925,0,0,0,.727-.56L12.982,1.85a.041.041,0,0,1,.007.014l2.927,6.995a.925.925,0,0,0,.727.56l7.416,1.067Z" transform="translate(-0.023 0)"/></g></g></svg>