<svg id="business_1_" data-name="business (1)" xmlns="http://www.w3.org/2000/svg" width="17" height="17" viewBox="0 0 17 17">
  <g id="Group_725" data-name="Group 725" transform="translate(0)">
    <path id="Path_8942" data-name="Path 8942" d="M14.51,2.49A8.5,8.5,0,0,0,2.49,14.51,8.5,8.5,0,0,0,14.51,2.49ZM9.034,12.2H9v1.1a.5.5,0,0,1-1,0V12.2H6.9a.5.5,0,1,1,0-1H9.034a1.1,1.1,0,0,0,0-2.2H7.967a2.1,2.1,0,0,1,0-4.2H8V3.7a.5.5,0,0,1,1,0V4.8h1.1a.5.5,0,0,1,0,1H7.967a1.1,1.1,0,0,0,0,2.2H9.034a2.1,2.1,0,0,1,0,4.2Z" transform="translate(0 0)"/>
  </g>
</svg>
