<svg xmlns="http://www.w3.org/2000/svg" width="19.467" height="14.817" viewBox="0 0 19.467 14.817">
  <g id="business" transform="translate(19.467) rotate(90)">
    <g id="Group_717" data-name="Group 717" transform="translate(0)">
      <path id="Path_8931" data-name="Path 8931" d="M14.333.5a.815.815,0,0,0-.887.135L12.169,1.766a.091.091,0,0,1-.122,0L10.31.211a.827.827,0,0,0-1.1,0L7.47,1.764a.092.092,0,0,1-.123,0L5.611.211a.827.827,0,0,0-1.1,0L2.768,1.765a.092.092,0,0,1-.122,0L1.368.635A.822.822,0,0,0,0,1.255V18.211a.823.823,0,0,0,1.37.62L2.647,17.7a.091.091,0,0,1,.122,0l1.738,1.554a.827.827,0,0,0,1.1,0L7.347,17.7a.092.092,0,0,1,.123,0l1.736,1.553a.828.828,0,0,0,1.1,0L12.049,17.7a.092.092,0,0,1,.122,0l1.278,1.131a.822.822,0,0,0,1.367-.62V1.255A.815.815,0,0,0,14.333.5ZM3.046,6.6H7.629a.368.368,0,1,1,0,.736H3.046a.368.368,0,1,1,0-.736Zm8.724,6.258H3.046a.368.368,0,1,1,0-.736H11.77a.368.368,0,0,1,0,.736Zm0-2.761H3.046a.368.368,0,1,1,0-.736H11.77a.368.368,0,0,1,0,.736Z" fill="#fff"/>
    </g>
  </g>
</svg>
