<svg xmlns="http://www.w3.org/2000/svg" width="22.031" height="21" viewBox="0 0 22.031 21">
  <g id="communications" transform="translate(0 -10.67)">
    <g id="Group_706" data-name="Group 706" transform="translate(14.124 26.525)">
      <g id="Group_705" data-name="Group 705">
        <path id="Path_1" data-name="Path 1" d="M294.924,338.862a2.572,2.572,0,1,0,2.572,2.572A2.6,2.6,0,0,0,294.924,338.862Z" transform="translate(-292.352 -338.862)" fill="#fff"/>
      </g>
    </g>
    <g id="Group_708" data-name="Group 708" transform="translate(0 10.67)">
      <g id="Group_707" data-name="Group 707">
        <path id="Path_2" data-name="Path 2" d="M21.223,14.257c-.049,0-.124-.025-.2-.025H5.442l-.247-1.657a2.215,2.215,0,0,0-2.2-1.9h-2a.989.989,0,1,0,0,1.979h2a.263.263,0,0,1,.247.223L4.774,23.31a2.712,2.712,0,0,0,2.671,2.3h10.29a2.749,2.749,0,0,0,2.671-2.177l1.608-8.039A.978.978,0,0,0,21.223,14.257Z" transform="translate(0 -10.67)" fill="#fff"/>
      </g>
    </g>
    <g id="Group_710" data-name="Group 710" transform="translate(5.366 26.525)">
      <g id="Group_709" data-name="Group 709">
        <path id="Path_3" data-name="Path 3" d="M116.093,341.311a2.557,2.557,0,0,0-2.548-2.449,2.587,2.587,0,0,0-2.473,2.671,2.535,2.535,0,0,0,2.523,2.449h.049A2.567,2.567,0,0,0,116.093,341.311Z" transform="translate(-111.07 -338.862)" fill="#fff"/>
      </g>
    </g>
  </g>
</svg>
