<svg id="commerce-and-shopping" xmlns="http://www.w3.org/2000/svg" width="13.287" height="13.847" viewBox="0 0 13.287 13.847">
  <g id="Group_719" data-name="Group 719" transform="translate(0 0)">
    <g id="Group_718" data-name="Group 718">
      <path id="Path_8932" data-name="Path 8932" d="M23.005,7.1a.406.406,0,0,1,0-.359l.516-1.056A1.2,1.2,0,0,0,23,4.09l-1.039-.551a.406.406,0,0,1-.211-.29l-.2-1.158A1.2,1.2,0,0,0,20.192,1.1l-1.164.165a.406.406,0,0,1-.341-.111L17.842.34a1.2,1.2,0,0,0-1.678,0l-.845.818a.406.406,0,0,1-.341.111L13.812,1.1a1.2,1.2,0,0,0-1.358.987l-.2,1.158a.406.406,0,0,1-.211.29L11,4.09a1.2,1.2,0,0,0-.519,1.6L11,6.742A.406.406,0,0,1,11,7.1l-.516,1.056A1.2,1.2,0,0,0,11,9.754l1.039.551a.406.406,0,0,1,.211.29l.2,1.158a1.2,1.2,0,0,0,1.185,1,1.235,1.235,0,0,0,.173-.012l1.164-.165a.406.406,0,0,1,.341.111l.845.818a1.2,1.2,0,0,0,1.678,0l.845-.818a.406.406,0,0,1,.341-.111l1.164.165a1.2,1.2,0,0,0,1.358-.987l.2-1.158a.406.406,0,0,1,.211-.29L23,9.754a1.2,1.2,0,0,0,.519-1.6Zm-7.6-3.773a1.464,1.464,0,1,1-1.464,1.464A1.466,1.466,0,0,1,15.405,3.328Zm-.756,6.512a.4.4,0,0,1-.565-.565L19.355,4a.4.4,0,0,1,.565.565Zm3.95.676a1.464,1.464,0,1,1,1.464-1.464A1.466,1.466,0,0,1,18.6,10.515Z" transform="translate(-10.359 0.002)"/>
    </g>
  </g>
  <g id="Group_721" data-name="Group 721" transform="translate(7.575 8.388)">
    <g id="Group_720" data-name="Group 720">
      <path id="Path_8933" data-name="Path 8933" d="M291.118,310.141a.666.666,0,1,0,.666.666A.666.666,0,0,0,291.118,310.141Z" transform="translate(-290.452 -310.141)"/>
    </g>
  </g>
  <g id="Group_723" data-name="Group 723" transform="translate(4.381 4.128)">
    <g id="Group_722" data-name="Group 722">
      <path id="Path_8934" data-name="Path 8934" d="M173,152.646a.666.666,0,1,0,.666.666A.666.666,0,0,0,173,152.646Z" transform="translate(-172.333 -152.646)"/>
    </g>
  </g>
</svg>
