<svg xmlns="http://www.w3.org/2000/svg" width="33.653" height="28.263" viewBox="0 0 33.653 28.263">
  <g id="cream" transform="translate(0 -41)">
    <path id="Path_12" data-name="Path 12" d="M22.019,411H.986a.986.986,0,0,0-.986.986,2.958,2.958,0,0,0,2.958,2.958H20.047a2.958,2.958,0,0,0,2.958-2.958A.986.986,0,0,0,22.019,411Z" transform="translate(0 -345.68)" fill="#a7a7a7"/>
    <path id="Path_13" data-name="Path 13" d="M334,42.694a10.64,10.64,0,0,0-11.52,0,.986.986,0,0,0-.366,1.318l2.993,5.536h6.265l2.993-5.536A.986.986,0,0,0,334,42.694Z" transform="translate(-300.832)" fill="#a7a7a7"/>
    <path id="Path_14" data-name="Path 14" d="M379.5,201h4.93v2.958H379.5Z" transform="translate(-354.554 -149.483)" fill="#a7a7a7"/>
    <path id="Path_15" data-name="Path 15" d="M379.5,286.352a2.465,2.465,0,1,0,4.93,0V276H379.5Z" transform="translate(-354.554 -219.553)" fill="#a7a7a7"/>
    <path id="Path_16" data-name="Path 16" d="M72.9,123.214a7.559,7.559,0,1,0,2.214,5.345,7.509,7.509,0,0,0-2.214-5.345Zm-9.063,7.26a.986.986,0,0,1-.7-1.683l4.648-4.648a.986.986,0,1,1,1.394,1.394l-4.648,4.648a.983.983,0,0,1-.7.289Zm8.133-2.148-4.648,4.648a.986.986,0,0,1-1.394-1.394l4.648-4.648a.986.986,0,1,1,1.394,1.394Z" transform="translate(-56.056 -74.741)" fill="#a7a7a7"/>
    <path id="Path_17" data-name="Path 17" d="M11.5,61A11.5,11.5,0,0,0,5.069,82.033H11.5A9.531,9.531,0,1,1,21.033,72.5,9.531,9.531,0,0,1,11.5,82.033h6.434A11.5,11.5,0,0,0,11.5,61Z" transform="translate(0 -18.685)" fill="#a7a7a7"/>
  </g>
</svg>
