<svg id="signs_1_" data-name="signs (1)" xmlns="http://www.w3.org/2000/svg" width="12.842" height="12.841" viewBox="0 0 12.842 12.841">
  <g id="Group_740" data-name="Group 740" transform="translate(0 0)">
    <path id="Path_8951" data-name="Path 8951" d="M12.588,12.141a4.4,4.4,0,0,1-1.638-1.768,5.915,5.915,0,0,0,1.89-4.3A6.265,6.265,0,0,0,6.42.032,6.265,6.265,0,0,0,0,6.076,6.265,6.265,0,0,0,6.42,12.12,7.863,7.863,0,0,0,8.1,11.928a8.219,8.219,0,0,0,4.128.942c.28,0,.484.047.589-.242A.382.382,0,0,0,12.588,12.141ZM7.172,9.11a.752.752,0,1,1-1.5,0V6.076a.752.752,0,1,1,1.5,0ZM6.42,4.17a.752.752,0,1,1,.752-.752A.752.752,0,0,1,6.42,4.17Z" transform="translate(0 -0.032)"/>
  </g>
</svg>
