<?xml version="1.0" standalone="no"?>
<!DOCTYPE svg PUBLIC "-//W3C//DTD SVG 20010904//EN"
 "http://www.w3.org/TR/2001/REC-SVG-20010904/DTD/svg10.dtd">
<svg version="1.0" xmlns="http://www.w3.org/2000/svg"
 width="17.000000pt" height="17.000000pt" viewBox="0 0 17.000000 17.000000"
 preserveAspectRatio="xMidYMid meet">

<g transform="translate(0.000000,17.000000) scale(0.100000,-0.100000)"
fill="#FFFFFF" stroke="none">
<path d="M29 141 c-17 -18 -29 -40 -29 -56 0 -35 50 -85 85 -85 35 0 85 50 85
85 0 35 -50 85 -85 85 -16 0 -38 -12 -56 -29z m56 -29 c-19 -4 -20 -22 -1 -22
23 0 29 -18 13 -40 -12 -18 -15 -18 -20 -5 -4 9 -1 15 8 15 8 0 15 5 15 10 0
6 -6 10 -14 10 -22 0 -28 17 -14 39 9 15 14 17 20 8 4 -7 1 -13 -7 -15z"/>
</g>
</svg>
