<svg xmlns="http://www.w3.org/2000/svg" width="19.255" height="19.257" viewBox="0 0 19.255 19.257">
  <path id="social-media_1_" data-name="social-media (1)" d="M18.737,8.376h0L10.881.52a1.772,1.772,0,0,0-2.507,0L.522,8.37l-.008.008a1.772,1.772,0,0,0,1.18,3.02l.055,0h.313v5.781a2.077,2.077,0,0,0,2.075,2.075H7.21a.564.564,0,0,0,.564-.564V14.161a.948.948,0,0,1,.947-.947h1.813a.948.948,0,0,1,.947.947v4.532a.564.564,0,0,0,.564.564h3.073a2.077,2.077,0,0,0,2.075-2.075V11.4h.29a1.773,1.773,0,0,0,1.255-3.026Zm0,0" transform="translate(0.001)" fill="#fff"/>
</svg>
