<svg id="interface_1_" data-name="interface (1)" xmlns="http://www.w3.org/2000/svg" width="18.938" height="18.938" viewBox="0 0 18.938 18.938">
  <path id="Path_8935" data-name="Path 8935" d="M64.592,237.824h1.973a.592.592,0,0,0,.592-.592V235.26a.592.592,0,0,0-.592-.592H64.592a.592.592,0,0,0-.592.592v1.973A.592.592,0,0,0,64.592,237.824Zm0,0" transform="translate(-61.633 -225.988)" fill="#fff"/>
  <path id="Path_8936" data-name="Path 8936" d="M64.592,365.824h1.973a.592.592,0,0,0,.592-.592V363.26a.592.592,0,0,0-.592-.592H64.592a.592.592,0,0,0-.592.592v1.973A.592.592,0,0,0,64.592,365.824Zm0,0" transform="translate(-61.633 -349.253)" fill="#fff"/>
  <path id="Path_8937" data-name="Path 8937" d="M213.924,237.824H215.9a.592.592,0,0,0,.592-.592V235.26a.592.592,0,0,0-.592-.592h-1.973a.592.592,0,0,0-.592.592v1.973A.592.592,0,0,0,213.924,237.824Zm0,0" transform="translate(-205.441 -225.988)" fill="#fff"/>
  <path id="Path_8938" data-name="Path 8938" d="M213.924,365.824H215.9a.592.592,0,0,0,.592-.592V363.26a.592.592,0,0,0-.592-.592h-1.973a.592.592,0,0,0-.592.592v1.973A.592.592,0,0,0,213.924,365.824Zm0,0" transform="translate(-205.441 -349.253)" fill="#fff"/>
  <path id="Path_8939" data-name="Path 8939" d="M363.26,237.824h1.973a.592.592,0,0,0,.592-.592V235.26a.592.592,0,0,0-.592-.592H363.26a.592.592,0,0,0-.592.592v1.973A.592.592,0,0,0,363.26,237.824Zm0,0" transform="translate(-349.253 -225.988)" fill="#fff"/>
  <path id="Path_8940" data-name="Path 8940" d="M16.571,2.367h-.789V.789A.789.789,0,0,0,14.993,0H14.2a.789.789,0,0,0-.789.789V2.367H5.524V.789A.789.789,0,0,0,4.735,0H3.946a.789.789,0,0,0-.789.789V2.367H2.367A2.37,2.37,0,0,0,0,4.735V16.571a2.37,2.37,0,0,0,2.367,2.367h14.2a2.37,2.37,0,0,0,2.367-2.367V4.735A2.37,2.37,0,0,0,16.571,2.367Zm.789,14.2a.79.79,0,0,1-.789.789H2.367a.79.79,0,0,1-.789-.789V7.923H17.36Zm0,0" fill="#fff"/>
</svg>
