<?xml version="1.0" standalone="no"?>
<!DOCTYPE svg PUBLIC "-//W3C//DTD SVG 20010904//EN"
 "http://www.w3.org/TR/2001/REC-SVG-20010904/DTD/svg10.dtd">
<svg version="1.0" xmlns="http://www.w3.org/2000/svg"
 width="225.000000pt" height="225.000000pt" viewBox="0 0 225.000000 225.000000"
 preserveAspectRatio="xMidYMid meet">
<metadata>
Created by potrace 1.16, written by Peter Selinger 2001-2019
</metadata>
<g transform="translate(0.000000,225.000000) scale(0.100000,-0.100000)"
fill="#FFFFF" stroke="none">
<path d="M413 2240 c-114 -23 -234 -116 -285 -220 -48 -101 -49 -122 -46 -930
3 -709 4 -758 22 -805 43 -117 135 -212 248 -258 50 -20 72 -22 405 -25 344
-3 352 -3 372 17 38 38 20 94 -32 106 -12 3 -170 6 -352 7 l-330 3 -54 30
c-29 16 -68 49 -87 73 -67 88 -65 56 -62 908 3 732 4 771 22 804 37 68 77 109
138 139 l61 31 344 0 c330 0 344 1 363 20 11 11 20 31 20 45 0 14 -9 34 -20
45 -19 19 -33 20 -352 19 -183 -1 -352 -5 -375 -9z"/>
<path d="M1665 1588 c-27 -15 -35 -28 -35 -57 0 -18 40 -65 157 -183 l157
-158 -660 0 c-734 0 -704 3 -704 -65 0 -68 -30 -65 704 -65 l660 0 -157 -158
c-168 -169 -180 -189 -137 -232 41 -41 54 -31 293 208 139 139 227 235 227
247 0 23 -448 475 -470 475 -8 0 -24 -6 -35 -12z"/>
</g>
</svg>
