<svg id="signs_2_" data-name="signs (2)" xmlns="http://www.w3.org/2000/svg" width="14.634" height="14.634" viewBox="0 0 14.634 14.634">
  <g id="Group_742" data-name="Group 742" fill="#FFFFFF"  transform="translate(0 0)">
    <g id="Group_741" data-name="Group 741">
      <path id="Path_8952" data-name="Path 8952" d="M5.488,7.32A1.831,1.831,0,0,0,7.317,9.149H9.756v4.878a.61.61,0,0,1-.61.61H.61a.61.61,0,0,1-.61-.61V.613A.61.61,0,0,1,.61,0H9.146a.61.61,0,0,1,.61.61V5.491H7.317A1.831,1.831,0,0,0,5.488,7.32Z" transform="translate(0 -0.003)"/>
      <path id="Path_8953" data-name="Path 8953" d="M242.456,151.993l.005.007c.01.013.021.027.03.041l.012.02c.006.01.012.02.018.031l.013.026c0,.009.009.018.013.027s.008.02.011.03.006.017.009.025.006.024.009.036,0,.014.005.021.006.033.008.05v.009a.616.616,0,0,1,0,.123v.009c0,.017,0,.034-.008.05s0,.014-.005.021-.006.024-.009.036-.006.017-.009.025-.007.02-.011.03l-.013.027-.013.026-.018.031-.012.02c-.009.014-.02.028-.03.041l-.005.007a.606.606,0,0,1-.044.048l-2.437,2.437a.61.61,0,0,1-.862-.862l1.4-1.4h-5.235a.61.61,0,0,1,0-1.219h5.235l-1.4-1.4a.61.61,0,1,1,.862-.862l2.437,2.437A.605.605,0,0,1,242.456,151.993Z" transform="translate(-227.96 -145.061)"/>
    </g>
  </g>
</svg>
