<svg id="social" xmlns="http://www.w3.org/2000/svg" width="11.289" height="13.532" viewBox="0 0 11.289 13.532">
  <path id="Path_8954" data-name="Path 8954" d="M90.29,6.518a3.153,3.153,0,0,0,2.3-.955,3.153,3.153,0,0,0,.955-2.3,3.154,3.154,0,0,0-.955-2.3,3.258,3.258,0,0,0-4.609,0,3.154,3.154,0,0,0-.955,2.3,3.153,3.153,0,0,0,.955,2.3A3.154,3.154,0,0,0,90.29,6.518Zm0,0" transform="translate(-84.731 0)"/>
  <path id="Path_8955" data-name="Path 8955" d="M11.262,251.185a8.051,8.051,0,0,0-.11-.855,6.737,6.737,0,0,0-.21-.86,4.246,4.246,0,0,0-.353-.8,3.026,3.026,0,0,0-.533-.694,2.35,2.35,0,0,0-.766-.481,2.646,2.646,0,0,0-.977-.177.992.992,0,0,0-.53.225c-.159.1-.345.223-.552.356a3.163,3.163,0,0,1-.714.315,2.772,2.772,0,0,1-1.747,0,3.154,3.154,0,0,1-.713-.314c-.205-.131-.391-.251-.552-.356a.991.991,0,0,0-.53-.225,2.642,2.642,0,0,0-.977.177,2.348,2.348,0,0,0-.766.481,3.026,3.026,0,0,0-.533.694,4.255,4.255,0,0,0-.353.8,6.753,6.753,0,0,0-.21.86,8.022,8.022,0,0,0-.11.855c-.018.259-.027.528-.027.8a2.247,2.247,0,0,0,.667,1.7,2.4,2.4,0,0,0,1.72.627H8.9a2.4,2.4,0,0,0,1.72-.627,2.246,2.246,0,0,0,.667-1.7C11.289,251.712,11.28,251.443,11.262,251.185Zm0,0" transform="translate(0 -240.78)"/>
</svg>
