<svg xmlns="http://www.w3.org/2000/svg" width="29.472" height="29.472" viewBox="0 0 29.472 29.472">
  <g id="beauty" transform="translate(0 0)">
    <g id="Group_714" data-name="Group 714" transform="translate(0 0)">
      <g id="Group_713" data-name="Group 713">
        <path id="Path_8" data-name="Path 8" d="M91.956,7.368a.5.5,0,0,0,.365-.151.514.514,0,0,0,.161-.375,1.547,1.547,0,0,1,.47-1.119,1.612,1.612,0,0,1,2.228.01,1.538,1.538,0,0,1,.459,1.109V10a.527.527,0,0,0,.526.526.505.505,0,0,0,.365-.151A.514.514,0,0,0,96.693,10V6.842a1.579,1.579,0,1,1,3.158,0v8.947a.527.527,0,0,0,.526.526.5.5,0,0,0,.365-.151.514.514,0,0,0,.161-.375V4.868a6.188,6.188,0,0,1,.931-3.358A3.315,3.315,0,0,1,102.216,1a3.493,3.493,0,0,0,.659-1H93.009A1.576,1.576,0,0,0,91.43,1.579V6.842A.526.526,0,0,0,91.956,7.368Z" transform="translate(-86.167 0)" fill="#a7a7a7"/>
        <path id="Path_9" data-name="Path 9" d="M13.914,331.787c-4.885,0-9.813-.707-11.994-2.072a12.1,12.1,0,0,0,23.987.013c-1.958,1.222-6.057,1.843-9.711,2.006C15.482,331.77,14.735,331.787,13.914,331.787Z" transform="translate(-1.809 -310.736)" fill="#a7a7a7"/>
        <path id="Path_10" data-name="Path 10" d="M15.789,256.139v.914a1.579,1.579,0,1,1-3.158,0V256c-.175,0-.351,0-.526,0C4.157,256,0,257.713,0,258.631s4.157,2.631,12.1,2.631c.8,0,1.534-.017,2.232-.052,6.358-.284,9.873-1.705,9.873-2.58C24.209,257.84,21.287,256.564,15.789,256.139Z" transform="translate(0 -241.264)" fill="#a7a7a7"/>
        <path id="Path_11" data-name="Path 11" d="M290.832,0H280.751a4.128,4.128,0,0,1-.984,1.709,2.3,2.3,0,0,0-.269.36,4.677,4.677,0,0,0-.5,1.089h11.833a1.579,1.579,0,0,0,0-3.158Z" transform="translate(-262.939 0)" fill="#a7a7a7"/>
      </g>
    </g>
  </g>
</svg>
