<svg id="commerce-and-shopping" xmlns="http://www.w3.org/2000/svg" width="19.425" height="20.245" viewBox="0 0 19.425 20.245">
  <g id="Group_719" data-name="Group 719" transform="translate(0 0)">
    <g id="Group_718" data-name="Group 718">
      <path id="Path_8932" data-name="Path 8932" d="M28.848,10.383a.593.593,0,0,1,0-.524L29.6,8.314a1.757,1.757,0,0,0-.758-2.334l-1.519-.806a.593.593,0,0,1-.308-.424l-.3-1.693a1.758,1.758,0,0,0-1.985-1.442l-1.7.241a.593.593,0,0,1-.5-.162L21.3.5a1.757,1.757,0,0,0-2.454,0l-1.236,1.2a.593.593,0,0,1-.5.162l-1.7-.241a1.757,1.757,0,0,0-1.985,1.442l-.3,1.693a.593.593,0,0,1-.308.424L11.3,5.98a1.757,1.757,0,0,0-.758,2.334L11.3,9.858a.593.593,0,0,1,0,.524l-.755,1.545a1.757,1.757,0,0,0,.758,2.334l1.519.806a.593.593,0,0,1,.308.424l.3,1.693a1.756,1.756,0,0,0,1.732,1.46,1.806,1.806,0,0,0,.253-.018l1.7-.241a.593.593,0,0,1,.5.162l1.236,1.2a1.757,1.757,0,0,0,2.454,0l1.236-1.2a.594.594,0,0,1,.5-.162l1.7.241a1.757,1.757,0,0,0,1.985-1.442l.3-1.693a.593.593,0,0,1,.308-.424l1.519-.806a1.757,1.757,0,0,0,.758-2.334ZM17.736,4.866A2.141,2.141,0,1,1,15.6,7.007,2.143,2.143,0,0,1,17.736,4.866Zm-1.1,9.52a.584.584,0,0,1-.826-.826l7.706-7.706a.584.584,0,0,1,.826.826Zm5.775.989a2.141,2.141,0,1,1,2.141-2.141A2.143,2.143,0,0,1,22.407,15.375Z" transform="translate(-10.359 0.002)" fill="#fff"/>
    </g>
  </g>
  <g id="Group_721" data-name="Group 721" transform="translate(11.075 12.263)">
    <g id="Group_720" data-name="Group 720">
      <path id="Path_8933" data-name="Path 8933" d="M291.425,310.141a.973.973,0,1,0,.973.973A.974.974,0,0,0,291.425,310.141Z" transform="translate(-290.452 -310.141)" fill="#fff"/>
    </g>
  </g>
  <g id="Group_723" data-name="Group 723" transform="translate(6.404 6.036)">
    <g id="Group_722" data-name="Group 722">
      <path id="Path_8934" data-name="Path 8934" d="M173.306,152.646a.973.973,0,1,0,.973.973A.974.974,0,0,0,173.306,152.646Z" transform="translate(-172.333 -152.646)" fill="#fff"/>
    </g>
  </g>
</svg>
