<svg xmlns="http://www.w3.org/2000/svg" width="32.333" height="24.652" viewBox="0 0 32.333 24.652">
  <g id="healthcare-and-medical" transform="translate(0.001 -60.818)">
    <path id="Path_20" data-name="Path 20" d="M32.233,68.943C27.962,60.4,18.635,60.2,14.3,61.279L.718,64.659A.948.948,0,0,0,.053,65.89l1.356,3.88A2.84,2.84,0,0,0,5,71.561l.026-.009,10.148-3.719a16.727,16.727,0,0,1,15.641,2.292.947.947,0,0,0,1.416-1.181Z" fill="#a7a7a7"/>
    <path id="Path_21" data-name="Path 21" d="M86.008,271.376c-1.494.894-4.023,3.689-8.309,4.911l-.029.006a.953.953,0,0,0-.1.031,15.409,15.409,0,0,1-4.119.546c-5.231,0-8.132-2.432-11.082-3.689a.947.947,0,1,0-.847,1.695c.46.194.932.427,1.424.681l-1.538,2.307a.947.947,0,0,0,1.576,1.051l1.65-2.475a24.728,24.728,0,0,0,2.98,1.319l-.707,2.826a.947.947,0,1,0,1.838.459l.686-2.744a16.91,16.91,0,0,0,2.934.433v2.874a.947.947,0,1,0,1.894,0v-2.862a17.551,17.551,0,0,0,2.947-.392l.69,2.759a.947.947,0,1,0,1.838-.459l-.7-2.8a17.739,17.739,0,0,0,3.011-1.33l1.6,2.407a.947.947,0,0,0,1.576-1.051l-1.579-2.368c.371-.264.266-.2,3.5-2.615a.947.947,0,0,0-1.137-1.516Z" transform="translate(-57.149 -197.083)" fill="#a7a7a7"/>
  </g>
</svg>
