<svg id="party" xmlns="http://www.w3.org/2000/svg" width="11.518" height="12.019" viewBox="0 0 11.518 12.019">
  <g id="Group_732" data-name="Group 732" transform="translate(0 3.305)">
    <g id="Group_731" data-name="Group 731">
      <path id="Path_8946" data-name="Path 8946" d="M11.764,142.679a.248.248,0,0,1-.093-.2h0v-1.7l-.732.609a.749.749,0,0,0-.27.577v6.777a.744.744,0,0,0,.1.359l4.188-3.277.429-.335Z" transform="translate(-10.666 -140.778)"/>
    </g>
  </g>
  <g id="Group_734" data-name="Group 734" transform="translate(6.808 3.305)">
    <g id="Group_733" data-name="Group 733">
      <path id="Path_8947" data-name="Path 8947" d="M305.112,141.387l-.732-.609v1.7h0a.245.245,0,0,1-.093.2l-3.612,2.807.927.72,3.7,2.872a.745.745,0,0,0,.084-.338v-6.777A.749.749,0,0,0,305.112,141.387Z" transform="translate(-300.672 -140.778)"/>
    </g>
  </g>
  <g id="Group_736" data-name="Group 736" transform="translate(0.476 8.012)">
    <g id="Group_735" data-name="Group 735" transform="translate(0 0)">
      <path id="Path_8948" data-name="Path 8948" d="M36.626,341.47a.674.674,0,0,0-.821,0l-4.872,3.812a.739.739,0,0,0,.275.054H41.224a.744.744,0,0,0,.3-.064Z" transform="translate(-30.933 -341.331)"/>
    </g>
  </g>
  <g id="Group_738" data-name="Group 738" transform="translate(1.502 0)">
    <g id="Group_737" data-name="Group 737">
      <path id="Path_8949" data-name="Path 8949" d="M74.667,0V4.886L78.291,7.7a1.162,1.162,0,0,1,1.265,0L83.18,4.886V0Zm5.759,4.006H79.174V5.258a.25.25,0,1,1-.5,0V4.006H77.421a.25.25,0,0,1,0-.5h1.252V2.254a.25.25,0,1,1,.5,0V3.505h1.252a.25.25,0,0,1,0,.5Z" transform="translate(-74.667)"/>
    </g>
  </g>
</svg>
