<svg id="interface_2_" data-name="interface (2)" xmlns="http://www.w3.org/2000/svg" width="19.321" height="19.321" viewBox="0 0 19.321 19.321">
  <g id="Group_724" data-name="Group 724" transform="translate(0 0)">
    <path id="Path_8941" data-name="Path 8941" d="M9.66,0a9.66,9.66,0,1,0,9.66,9.66A9.671,9.671,0,0,0,9.66,0Zm0,2.818A4.629,4.629,0,1,1,5.031,7.446,4.634,4.634,0,0,1,9.66,2.818Zm0,14.893A8.034,8.034,0,0,1,3.227,14.48a15.158,15.158,0,0,1,6.433-1.6,15.159,15.159,0,0,1,6.433,1.6A8.034,8.034,0,0,1,9.66,17.711Z" fill="#fff"/>
  </g>
</svg>
