<?xml version="1.0" standalone="no"?>
<!DOCTYPE svg PUBLIC "-//W3C//DTD SVG 20010904//EN"
 "http://www.w3.org/TR/2001/REC-SVG-20010904/DTD/svg10.dtd">
<svg version="1.0" xmlns="http://www.w3.org/2000/svg"
 width="980.000000pt" height="980.000000pt" viewBox="0 0 980.000000 980.000000"
 preserveAspectRatio="xMidYMid meet">
<metadata>
Created by potrace 1.16, written by Peter Selinger 2001-2019
</metadata>
<g transform="translate(0.000000,980.000000) scale(0.100000,-0.100000)"
fill="#000000" stroke="none">
<path d="M4730 9793 c-392 -27 -665 -71 -999 -159 -941 -249 -1818 -809 -2447
-1564 -544 -652 -898 -1419 -1039 -2253 -77 -456 -85 -957 -24 -1422 78 -596
285 -1206 582 -1722 l65 -113 -433 -1277 c-238 -703 -432 -1279 -431 -1280 1
-1 143 43 316 98 1359 433 2327 739 2338 739 6 0 98 -42 204 -94 1335 -652
2892 -658 4223 -17 739 356 1379 899 1853 1571 245 348 463 773 601 1175 516
1493 255 3144 -695 4405 -783 1040 -1949 1717 -3234 1879 -279 35 -656 50
-880 34z m-989 -2456 c81 -43 102 -86 319 -666 153 -408 200 -545 200 -580 0
-34 -10 -65 -36 -118 -51 -98 -100 -161 -251 -322 -146 -155 -164 -186 -143
-255 14 -47 75 -157 168 -301 283 -440 631 -786 1048 -1041 60 -37 199 -111
308 -166 224 -110 258 -118 329 -75 40 24 242 241 405 436 52 62 109 122 126
132 45 27 106 24 194 -12 120 -48 954 -486 1021 -536 51 -39 65 -82 57 -183
-13 -161 -69 -370 -129 -484 -68 -128 -273 -294 -488 -395 -129 -61 -217 -88
-339 -106 -52 -7 -130 -19 -173 -26 -156 -24 -375 26 -773 175 -783 292 -1199
549 -1699 1050 -283 283 -486 535 -739 916 -206 309 -263 403 -341 565 -150
309 -215 561 -215 829 0 230 40 414 130 603 68 142 136 238 268 374 119 123
190 171 287 195 29 7 127 13 236 13 176 1 188 0 230 -22z"/>
</g>
</svg>
