<svg xmlns="http://www.w3.org/2000/svg" width="250.737" height="292.828" viewBox="0 0 250.737 292.828">
    <defs>
        <style>
            .cls-1{fill:none}.cls-2{fill:#f7c612}.cls-3{fill:#1a3868}.cls-4{clip-path:url(#clip-path)}.cls-5{opacity:.4}.cls-6{fill:#fff}.cls-7{fill:#c47f1a}.cls-8{clip-path:url(#clip-path-2)}.cls-9{fill:#00a79d}.cls-10{fill:#3a3039}.cls-11{fill:#eff9fe}.cls-12{fill:#feb994}.cls-13{fill:#8dc63f}.cls-14{fill:#3a77b4}.cls-15{opacity:.16}.cls-16{fill:#221e21}.cls-17{fill:#fe6f93}.cls-18{fill:#f04e23}.cls-19{clip-path:url(#clip-path-3)}.cls-20{fill:#fefefe}.cls-21{fill:#fdfdfe}.cls-22{fill:#fbfdfd}.cls-23{fill:#fafcfd}.cls-24{fill:#f9fbfc}.cls-25{fill:#f8fafb}.cls-26{fill:#f6fafb}.cls-27{fill:#f5f9fa}.cls-28{fill:#f4f8fa}.cls-29{fill:#f3f7f9}.cls-30{fill:#f2f7f9}.cls-31{fill:#f1f6f8}.cls-32{fill:#eff5f7}.cls-33{fill:#eef5f7}.cls-34{fill:#edf4f6}.cls-35{fill:#ecf3f6}.cls-36{fill:#ebf2f5}.cls-37{fill:#eaf2f5}.cls-38{fill:#e9f1f4}.cls-39{fill:#e8f0f4}.cls-40{fill:#e7f0f3}.cls-41{fill:#e6eff3}.cls-42{fill:#e4eef2}.cls-43{fill:#e3eef2}.cls-44{fill:#e2edf1}.cls-45{fill:#e1ecf1}.cls-46{fill:#e0ecf0}.cls-47{fill:#dfebf0}.cls-48{fill:#deebef}.cls-49{fill:#ddeaef}.cls-50{fill:#dde9ee}.cls-51{fill:#dce9ee}.cls-52{fill:#dbe8ed}.cls-53{fill:#dae8ed}.cls-54{fill:#d9e7ec}.cls-55{fill:#d8e7ec}.cls-56{fill:#d7e6ec}.cls-57{fill:#d7e6eb}.cls-58{fill:#d6e5eb}.cls-59{fill:#d5e5eb}.cls-60{fill:#d4e4ea}.cls-61{clip-path:url(#clip-path-4)}.cls-62{fill:#35365e}.cls-63{clip-path:url(#clip-path-5)}.cls-64{fill:#fafcfc}.cls-65{fill:#f9fbfb}.cls-66{fill:#f7f9fa}.cls-67{fill:#f5f8f9}.cls-68{fill:#f4f8f9}.cls-69{fill:#f3f7f8}.cls-70{fill:#f2f6f7}.cls-71{fill:#f1f5f7}.cls-72{fill:#eff4f6}.cls-73{fill:#eef4f5}.cls-74{fill:#edf3f4}.cls-75{fill:#ecf2f4}.cls-76{fill:#ebf1f3}.cls-77{fill:#e9f0f2}.cls-78{fill:#e8f0f2}.cls-79{fill:#e7eff1}.cls-80{fill:#e6eef0}.cls-81{fill:#e5edf0}.cls-82{fill:#e4ecef}.cls-83{fill:#e3ecee}.cls-84{fill:#e1ebee}.cls-85{fill:#e0eaed}.cls-86{fill:#dfe9ec}.cls-87{fill:#dee9ec}.cls-88{fill:#dde8eb}.cls-89{fill:#dce7ea}.cls-90{fill:#dbe6ea}.cls-91{fill:#d9e5e9}.cls-92{fill:#d8e5e8}.cls-93{fill:#d7e4e8}.cls-94{fill:#d6e3e7}.cls-95{fill:#d5e2e6}.cls-96{fill:#d4e2e6}.cls-97{fill:#d3e1e5}.cls-98{fill:#d2e0e4}.cls-99{fill:#d1dfe4}.cls-100{fill:#cfdfe3}.cls-101{fill:#cedee2}.cls-102{fill:#cddde2}.cls-103{fill:#ccdce1}.cls-104{fill:#cbdce1}.cls-105{fill:#cadbe0}.cls-106{fill:#c9dadf}.cls-107{fill:#c8dadf}.cls-108{fill:#c7d9de}.cls-109{fill:#c6d8dd}.cls-110{fill:#c5d7dd}.cls-111{fill:#c4d7dc}.cls-112{fill:#c3d6dc}.cls-113{fill:#c2d5db}.cls-114{fill:#c1d5da}.cls-115{fill:#c0d4da}.cls-116{fill:#bfd3d9}.cls-117{fill:#bed3d9}.cls-118{fill:#bdd2d8}.cls-119{fill:#bcd1d7}.cls-120{fill:#bbd0d7}.cls-121{fill:#bad0d6}.cls-122{fill:#b9cfd6}.cls-123{fill:#b8ced5}.cls-124{fill:#b7ced5}.cls-125{fill:#b6cdd4}.cls-126{fill:#b5cdd3}.cls-127{fill:#b4ccd3}.cls-128{fill:#b3cbd2}.cls-129{fill:#b2cbd2}.cls-130{fill:#b1cad1}.cls-131{fill:#b0c9d1}.cls-132{fill:#afc9d0}.cls-133{fill:#aec8d0}.cls-134{fill:#adc8cf}.cls-135{fill:#adc7cf}.cls-136{fill:#acc6ce}.cls-137{fill:#abc6ce}.cls-138{fill:#aac5cd}.cls-139{fill:#a9c5cd}.cls-140{fill:#a8c4cc}.cls-141{fill:#a7c3cc}.cls-142{fill:#a7c3cb}.cls-143{fill:#a6c2cb}.cls-144{fill:#a5c2ca}.cls-145{fill:#a4c1ca}.cls-146{fill:#a4c1c9}.cls-147{fill:#a3c0c9}.cls-148{fill:#a2c0c8}.cls-149{fill:#a1bfc8}.cls-150{fill:#a0bec7}.cls-151{fill:#9fbec7}.cls-152{fill:#9ebdc6}.cls-153{fill:#ffdd15}
        </style>
        <clipPath id="clip-path">
            <path id="Path_342" d="M436.01 3172.348q-4.3-.229-8.587-.207c-34.788.168-70.469 12.92-92.332 41.025q-1.55 1.992-2.993 4.063a149.9 149.9 0 0 0-19.789 41.305c-6.559 21.1-13.191 47.821-7.531 69.8 4.483 17.41 18.33 31.454 36.44 33.985a45.76 45.76 0 0 0 6.333.434c12.574 0 25.281-6.242 32.5-16.835 4.224-6.195 13-30.658 23.6-19.056 2.311 2.529 3.257 6.288 3.483 9.639.709 10.512 1.962 19.43 7.293 28.751a72.106 72.106 0 0 0 20.447 22.362 73.92 73.92 0 0 0 33.161 13.294 74.672 74.672 0 0 0 10.131.688c38.331 0 69.747-32.917 74.113-69.888 2.68-22.694.056-45.973-5.249-68.1-5.062-21.115-14.3-41.65-29.633-57.324a103.944 103.944 0 0 0-28.7-20.683 136.979 136.979 0 0 0-52.687-13.253z" class="cls-1" data-name="Path 342" transform="translate(-302.638 -3172.139)"/>
        </clipPath>
        <clipPath id="clip-path-2">
            <path id="Path_530" d="M435.922 3172.348q-4.3-.229-8.587-.207a136.057 136.057 0 0 0-45.126 7.745c-5.85 2.1-10.331-11.384-26.62-6.338-10.956 8.607-.228 20.01-4.771 23.638a95.408 95.408 0 0 0-15.818 15.98q-1.55 1.992-2.993 4.063a140.369 140.369 0 0 0-13.148 23.532c-.8 1.819-15.577 2.148-16.312 4-.723 1.819 12.589 5.158 11.931 7q-1.2 3.363-2.259 6.773c-6.559 21.1-13.191 47.821-7.531 69.8 4.483 17.41 18.33 31.454 36.44 33.985a45.76 45.76 0 0 0 6.333.434c12.574 0 25.281-6.242 32.5-16.835 4.224-6.195 13-30.658 23.6-19.056 2.311 2.529 3.257 6.288 3.483 9.639.709 10.512 1.962 19.43 7.293 28.751a72.106 72.106 0 0 0 20.447 22.362 73.92 73.92 0 0 0 33.161 13.294 74.673 74.673 0 0 0 10.131.688c38.331 0 69.747-32.917 74.113-69.888 2.68-22.694.056-45.973-5.249-68.1-5.062-21.115-14.3-41.65-29.633-57.324a103.944 103.944 0 0 0-28.7-20.683 136.979 136.979 0 0 0-52.685-13.253z" class="cls-1" data-name="Path 530" transform="translate(-302.521 -3172.139)"/>
        </clipPath>
        <clipPath id="clip-path-3">
            <path id="Path_371" d="M576.207 3346.037c-.141.124-.292.26-.455.409l.224-.817z" class="cls-1" data-name="Path 371" transform="translate(-575.752 -3345.628)"/>
        </clipPath>
        <clipPath id="clip-path-4"/>
        <clipPath id="clip-path-5">
            <path id="Path_526" d="M589.452 3536.552a.443.443 0 0 0 .032-.034v.036z" class="cls-1" data-name="Path 526" transform="translate(-589.452 -3536.518)"/>
        </clipPath>
    </defs>
    <g id="Symbol_20_1" data-name="Symbol 20 – 1" transform="translate(-63 -.469)">
        <g id="Group_401" data-name="Group 401" transform="translate(63.028 .469)">
            <g id="Group_380" data-name="Group 380" transform="translate(0 63.369)">
                <path id="Path_333" d="M436.01 3172.348q-4.3-.229-8.587-.207c-34.788.168-70.469 12.92-92.332 41.025q-1.55 1.992-2.993 4.063a149.9 149.9 0 0 0-19.789 41.305c-6.559 21.1-13.191 47.821-7.531 69.8 4.483 17.41 18.33 31.454 36.44 33.985a45.76 45.76 0 0 0 6.333.434c12.574 0 25.281-6.242 32.5-16.835 4.224-6.195 13-30.658 23.6-19.056 2.311 2.529 3.257 6.288 3.483 9.639.709 10.512 1.962 19.43 7.293 28.751a72.106 72.106 0 0 0 20.447 22.362 73.92 73.92 0 0 0 33.161 13.294 74.672 74.672 0 0 0 10.131.688c38.331 0 69.747-32.917 74.113-69.888 2.68-22.694.056-45.973-5.249-68.1-5.062-21.115-14.3-41.65-29.633-57.324a103.944 103.944 0 0 0-28.7-20.683 136.979 136.979 0 0 0-52.687-13.253z" class="cls-2" data-name="Path 333" transform="translate(-302.638 -3172.139)"/>
            </g>
            <g id="Group_388" data-name="Group 388" transform="translate(114.341)">
                <g id="Group_381" data-name="Group 381" transform="translate(0 40.916)">
                    <path id="Path_334" d="M817.478 3106.554a24.562 24.562 0 0 0-3.931-10.531 28.6 28.6 0 0 0-9.21-7.959 39.387 39.387 0 0 1-5.033-3.308 14.894 14.894 0 0 1-3.7-4.585.337.337 0 0 0-.139-.233.308.308 0 0 0-.326-.083l-.032.01a.008.008 0 0 1-.007 0l-.036.017a.362.362 0 0 0-.209.294 14.894 14.894 0 0 1-3.7 4.585 39.628 39.628 0 0 1-5.033 3.306 28.639 28.639 0 0 0-9.21 7.962 24.564 24.564 0 0 0-3.931 10.528c-.691 4.7-.063 9.341.791 13.995l.338 1.841a.361.361 0 0 0 .063.353 58.447 58.447 0 0 1 1.1 8.962c-.046 0-.095 0-.141-.01-.861-.053-.856 1.285 0 1.338.131.01.263.017.392.027a1.037 1.037 0 0 0 .7 1.729c6.687 1 13.469.878 19.918 1.306a131.375 131.375 0 0 0 18.2-.555c1.1-.124 1.6-1.413.8-1.873.377-.048.418-.1.8-.156.851-.126.489-1.416-.355-1.292-.134.022-.27.039-.4.058a68.007 68.007 0 0 1 1.513-11.737c.839-4.65 1.469-9.287.778-13.989zm-16.785-19.96c3.6 2.374 7.512 4.286 10.37 7.42a22.1 22.1 0 0 1 4.756 8.4q-2.043-.2-4.094-.363a26.478 26.478 0 0 0-6.4-10.324c-2.068-2.17-4.313-4.216-6.352-6.407a20.189 20.189 0 0 0 1.72 1.274zm-3.313-2c2.742 3.121 6 5.863 8.714 9a24.458 24.458 0 0 1 4.846 8.4q-1.923-.146-3.846-.258a25.652 25.652 0 0 0-3.795-9.356c-1.861-2.763-4.447-5.125-6.055-7.95.046.056.09.112.136.163zm.613 2.331c1.394 1.827 3.082 3.457 4.379 5.342a25.678 25.678 0 0 1 3.985 9.434q-2.937-.161-5.88-.231a43.916 43.916 0 0 0-1.472-7.244c-.637-2.129-1.4-4.221-1.98-6.364a88.913 88.913 0 0 1-1.019-4.257 16.16 16.16 0 0 0 1.987 3.318zm-2.377-1.732c.219.949.453 1.895.708 2.836.584 2.143 1.36 4.235 1.98 6.366a45.9 45.9 0 0 1 1.438 7.057q-2.065-.04-4.126-.039zm-.783.007v16.216q-2.065.011-4.128.068a45.909 45.909 0 0 1 1.44-7.081c.62-2.134 1.4-4.223 1.98-6.366.256-.944.489-1.89.708-2.837zm-1.408 2.668c-.577 2.143-1.343 4.235-1.98 6.364a43.784 43.784 0 0 0-1.477 7.276q-2.948.094-5.9.292a25.791 25.791 0 0 1 4.007-9.528c1.3-1.883 2.985-3.515 4.379-5.34a16.153 16.153 0 0 0 1.987-3.32 89.38 89.38 0 0 1-1.016 4.255zm-.355-3.267l.136-.16c-1.608 2.824-4.194 5.186-6.055 7.947a25.715 25.715 0 0 0-3.814 9.46q-1.945.139-3.885.324a24.424 24.424 0 0 1 4.9-8.57c2.716-3.139 5.976-5.881 8.718-9.002zm-13.683 9.422c2.858-3.133 6.772-5.045 10.37-7.419a20.253 20.253 0 0 0 1.722-1.27c-2.038 2.189-4.284 4.235-6.352 6.407a26.47 26.47 0 0 0-6.4 10.327l-.054.182q-2.065.2-4.126.467a22.158 22.158 0 0 1 4.839-8.696zm-5.235 24.623a36.277 36.277 0 0 1-.073-14.116c.08-.375.173-.747.272-1.119q2.054-.263 4.118-.472c-1.194 4.388-1.068 8.984-.759 13.455.131 1.9.285 3.8.414 5.7q-1.668 0-3.335.061c-.214-1.168-.436-2.338-.638-3.511zm4.208 12.45c-.012.272-.029.547-.054.82q-1.157-.081-2.311-.158a58.048 58.048 0 0 0-1.085-8.932 95.75 95.75 0 0 1 3.26-.058 82.719 82.719 0 0 1 .19 8.326zm.375-10.864c-.389-4.941-.881-9.927-.056-14.856a23.146 23.146 0 0 1 .567-2.515q1.981-.19 3.965-.333c-.073.416-.141.834-.2 1.253-.839 6.108-.389 12.255.107 18.4a154.326 154.326 0 0 0-4.247-.08 95.123 95.123 0 0 0-.137-1.871zm.294 11.735c.017-.192.029-.385.041-.577.08-1.27.032-2.544.022-3.817a87.65 87.65 0 0 0-.178-4.809c1.421.007 2.841.037 4.259.08.258 3.16.513 6.32.6 9.47q-2.373-.176-4.744-.349zm4.661-12.62a81.492 81.492 0 0 1-.015-15.055q.106-.912.268-1.814 2.97-.2 5.948-.3c-.173 1.574-1.837 2.761-2.236 3.785-1.209 3.114-1.014 10.219.122 13.362.314.869 1.958 2.394 1.992 3.116-1.953-.083-3.9-.17-5.858-.236-.111-1.452-.2-2.539-.222-2.86zm6.232 13.394q-2.7-.168-5.388-.37c-.051-2.372-.343-6.5-.572-9.5 1.946.066 3.892.153 5.838.233.139 3.045.241 6.56.122 9.635zm4.911.262a215.86 215.86 0 0 1-4.189-.219c.124-3.075.024-6.6-.117-9.648 1.435.058 2.87.112 4.306.148zm4.96.146q-2.087-.03-4.177-.112v-9.73q1.449.033 2.9.036c.467 0 .932.005 1.4.012-.135 2.876-.225 6.791-.123 9.792zm-1.482-10.475c-.9 0-3.537-.015-4.435-.034v-.046q-1.693-.051-3.386-.122c-.029-.63-1.425-2.272-1.734-3.08-1.2-3.123-1.53-9.993-.392-13.141.4-1.1 2.065-2.42 2.255-4.1 1.153-.032 3.437-.053 4.992-.063v-.01h.888q1.66 0 3.318.039c.192 1.683 2.167 3.71 2.593 5.067 1 3.194 1.744 9.743.095 12.654-.387.684-2.535 2.141-2.566 2.846-.539-.004-1.085-.011-1.627-.011zm7.612 10.411c-1.8.066-3.6.085-5.4.071-.1-3-.012-6.914.117-9.789 1.936.034 3.87.093 5.807.071-.215 2.815-.463 7.286-.524 9.646zm-5.254-10.382c.039-.815 1.949-1.693 2.34-2.442 1.55-2.958 1.168-10.188.122-13.36-.426-1.284-2.4-3.177-2.576-4.76q2.97.073 5.936.236c.114.633.212 1.268.285 1.907a81.476 81.476 0 0 1-.015 15.055c-.024.365-.134 1.7-.265 3.432-1.945.029-3.886-.03-5.827-.071zm10.711 8.679c.022.341.046.944.085 1.341-1.593.153-3.189.26-4.787.331.09-2.968.316-6.748.55-9.631.146 0 .289-.005.433-.01a38.2 38.2 0 0 0 3.853-.277 86.05 86.05 0 0 0-.156 4.43c-.01 1.271-.058 2.545.022 3.815zm.175-8.918a40.265 40.265 0 0 1-4.274.292c.516-6.337 1.022-12.681.156-18.984a33.246 33.246 0 0 0-.214-1.357q1.967.117 3.929.265a22.943 22.943 0 0 1 .62 2.688c.825 4.928.333 9.915-.056 14.858-.061.746-.116 1.491-.161 2.237zm2.892 9.92c-.754.1-1.508.187-2.262.267a32.935 32.935 0 0 1-.095-1.564c-.1-2.7 0-5.381.173-8.064a16.631 16.631 0 0 0 3.406-.915 58.177 58.177 0 0 0-1.222 10.276zm1.36-11.03a.3.3 0 0 0-.107.027 14.768 14.768 0 0 1-3.393.966c.134-1.985.3-3.973.433-5.96.314-4.539.438-9.2-.812-13.647q2.047.168 4.094.367.2.7.35 1.413a36.274 36.274 0 0 1-.073 14.116c-.156.906-.324 1.811-.492 2.718z" class="cls-3" data-name="Path 334" transform="translate(-772.676 -3079.839)"/>
                </g>
                <g id="Group_382" data-name="Group 382" transform="translate(17.678 37.036)">
                    <path id="Path_335" d="M853.1 3067.475c-.169-1.24 2.471-1.525-.354-2.355 1-1.579-6.222-1.71-5.383 0-2.826.83-.185 1.115-.355 2.355-.125.708-1.615.763-1.656 1.826-.081 2.142 4.4 2.1 4.7 2.053.3.051 4.784.089 4.7-2.053-.039-1.063-1.529-1.117-1.652-1.826z" class="cls-3" data-name="Path 335" transform="translate(-845.349 -3063.886)"/>
                </g>
                <g id="Group_383" data-name="Group 383" transform="translate(19.338 30.914)">
                    <path id="Path_336" d="M855.348 3038.72a3.177 3.177 0 1 0 3.177 3.176 3.18 3.18 0 0 0-3.177-3.176zm0 4.822a1.645 1.645 0 1 1 1.645-1.646 1.647 1.647 0 0 1-1.645 1.646z" class="cls-3" data-name="Path 336" transform="translate(-852.171 -3038.72)"/>
                </g>
                <g id="Group_384" data-name="Group 384" transform="translate(18.594 44.02)">
                    <path id="Path_337" d="M855.532 3092.614c-1.763.344-3.877.7-5.608.056-.81-.3-1.157.992-.356 1.29 1.956.727 4.329.332 6.319-.056.846-.165.487-1.454-.355-1.29z" class="cls-2" data-name="Path 337" transform="translate(-849.114 -3092.6)"/>
                </g>
                <g id="Group_385" data-name="Group 385" transform="translate(14.763 36.657)">
                    <path id="Path_338" d="M850.5 3074.264a9.376 9.376 0 0 1-5.912-3.2c.545-.125 1.085-.3 1.595-.447a11.211 11.211 0 0 0 2.826-1.189c1.51-.931 2.609-3.056 1.3-4.627-1.029-1.233-3.158-.316-4.186.407a9.611 9.611 0 0 0-2.009 2.135 14.773 14.773 0 0 0-1 1.471c-.03 0-.059.011-.089.018-.608-1.034-1.184-2.094-1.847-3.094-1.155-1.742-2.75-3.338-4.971-3.406-1.7-.052-3.346 1.1-2.708 2.943a8.831 8.831 0 0 0 3.558 3.87 11.6 11.6 0 0 0 2.35 1.15 12.028 12.028 0 0 0 2.548.683c-1.251 2.6-2.159 5.416-1.3 8.293a.6.6 0 0 0 1.163-.32c-.737-2.462.006-4.869 1.053-7.106.027.01.053.022.081.031a.883.883 0 0 0 .677-.068 10.476 10.476 0 0 0 6.544 3.62c.768.13 1.094-1.028.327-1.164zm-8.547-4.512a10.626 10.626 0 0 1-5.2-2.328c-.745-.666-1.923-1.592-2.155-2.611-.294-1.294 1.392-1.393 2.255-1.24a5.113 5.113 0 0 1 2.791 2.083 19.23 19.23 0 0 1 1.877 3.045c.148.276.322.529.492.791a.577.577 0 0 0-.058.26zm4.487-3.263c.6-.581 1.887-1.423 2.757-1s.468 1.672-.015 2.25a6.769 6.769 0 0 1-3.473 1.756c-.425.121-.883.272-1.343.381a1.583 1.583 0 0 0-.194-.544 13.108 13.108 0 0 1 2.27-2.843z" class="cls-2" data-name="Path 338" transform="translate(-833.362 -3062.329)"/>
                </g>
                <g id="Group_386" data-name="Group 386" transform="translate(21.2)">
                    <path id="Path_339" d="M862.121 2941.456a.666.666 0 0 0 .192-.464.675.675 0 0 0-.5-.645v-28.709h-1.337v28.7a.675.675 0 0 0-.558.657.666.666 0 0 0 .213.484.678.678 0 0 0 .344 1.244v1.171a.669.669 0 0 0 1.337 0v-1.171a.677.677 0 0 0 .309-1.267z" class="cls-2" data-name="Path 339" transform="translate(-859.828 -2911.639)"/>
                </g>
                <g id="Group_387" data-name="Group 387" transform="translate(23.499 43.044)">
                    <path id="Path_340" d="M870.9 3088.655c-.844-.347-1.973.586-1.516 2.451a1.313 1.313 0 0 0 1.628.939c.6-.267.712-1.088.713-1.665-.002-.98-.374-1.538-.825-1.725z" class="cls-2" data-name="Path 340" transform="translate(-869.276 -3088.584)"/>
                </g>
            </g>
            <g id="Group_400" data-name="Group 400" transform="translate(0 63.369)">
                <g id="Group_399" class="cls-4" data-name="Group 399">
                    <g id="Group_398" data-name="Group 398" transform="translate(172.425 -4.189)">
                        <g id="Group_393" data-name="Group 393">
                            <g id="Group_390" class="cls-5" data-name="Group 390" transform="translate(1.703 1.703)">
                                <g id="Group_389" data-name="Group 389">
                                    <path id="Rectangle_236" d="M0 0h71.963v50.899H0z" class="cls-6" data-name="Rectangle 236"/>
                                </g>
                            </g>
                            <g id="Group_392" data-name="Group 392">
                                <g id="Group_391" data-name="Group 391">
                                    <path id="Path_341" d="M1086.815 3209.222h-75.369v-54.3h75.369zm-71.963-3.406h68.557v-47.493h-68.557z" class="cls-7" data-name="Path 341" transform="translate(-1011.446 -3154.917)"/>
                                </g>
                            </g>
                        </g>
                        <g id="Group_395" data-name="Group 395" transform="translate(1.703 17.889)">
                            <g id="Group_394" data-name="Group 394">
                                <path id="Rectangle_237" d="M0 0h71.963v3.406H0z" class="cls-7" data-name="Rectangle 237"/>
                            </g>
                        </g>
                        <g id="Group_397" data-name="Group 397" transform="translate(34.71 1.703)">
                            <g id="Group_396" data-name="Group 396">
                                <path id="Rectangle_238" d="M0 0h3.406v49.42H0z" class="cls-7" data-name="Rectangle 238"/>
                            </g>
                        </g>
                    </g>
                </g>
            </g>
        </g>
        <g id="Group_456" data-name="Group 456" transform="translate(63 63.839)">
            <g id="Group_455" class="cls-8" data-name="Group 455">
                <g id="Group_454" data-name="Group 454" transform="translate(8.524 7.001)">
                    <g id="Group_402" data-name="Group 402" transform="translate(117.24 93.166)">
                        <path id="Path_343" d="M851.041 3586.778s-10.091 1.73-11.1 13.262 2.018 19.6-9.514 30.561-10.667 20.037-10.667 20.037-7.212 23.182 56.653 26.957c58.526 3.46 56.076-22.2 56.076-22.2s.432-15.136-16.433-27.533 5.91-23.786-17.443-36.76-47.284-4.468-47.572-4.324z" class="cls-9" data-name="Path 343" transform="translate(-819.514 -3583.908)"/>
                    </g>
                    <g id="Group_403" data-name="Group 403" transform="translate(147.685 107.838)">
                        <path id="Path_344" d="M944.669 3645.242s.541 2.838 4.973 3.757 6.051-.5 6.051-.5l-.078-.733-1.379-2.568-9.379-.973z" class="cls-10" data-name="Path 344" transform="translate(-944.669 -3644.224)"/>
                    </g>
                    <g id="Group_404" data-name="Group 404" transform="translate(191.94 106.378)">
                        <path id="Path_345" d="M1136.451 3639.414s.595 3.622-3.838 4.541-6.019-.865-6.019-.865l1.5-3.081 6.541-1.784z" class="cls-10" data-name="Path 345" transform="translate(-1126.595 -3638.224)"/>
                    </g>
                    <g id="Group_405" data-name="Group 405" transform="translate(149.224 105.622)">
                        <path id="Path_346" d="M951.836 3635.113l7.568 2.162-.15 1.019a16.63 16.63 0 0 0 9.318 17.449l8.239 3.912-13.731 1.622-3.246-2.13a19.571 19.571 0 0 1-8.67-18.911z" class="cls-11" data-name="Path 346" transform="translate(-950.997 -3635.113)"/>
                    </g>
                    <g id="Group_406" class="cls-5" data-name="Group 406" transform="translate(149.307 106.883)">
                        <path id="Path_347" d="M951.336 3644.551s.757-1.045 4.18-.288 3.892 1.874 3.892 1.874l-.108-2.7-6.7-3.135-.865 1.73z" class="cls-12" data-name="Path 347" transform="translate(-951.336 -3640.298)"/>
                    </g>
                    <g id="Group_407" data-name="Group 407" transform="translate(180.112 103.774)">
                        <path id="Path_348" d="M1094.494 3652.674l-2.749 2.741-13.773 1.194 7.276-5.5a16.629 16.629 0 0 0 5.59-18.974l-.054-.148-.3-.82 6.974-3.649.825 2.374.871 2.506c.01.027.019.053.027.08a19.57 19.57 0 0 1-4.687 20.196z" class="cls-11" data-name="Path 348" transform="translate(-1077.972 -3627.518)"/>
                    </g>
                    <g id="Group_408" class="cls-5" data-name="Group 408" transform="translate(192.925 105.693)">
                        <path id="Path_349" d="M1139.3 3639.174c-1.568-.379-1.73-.379-4.162.216a4.662 4.662 0 0 0-3.514 2.594 28.074 28.074 0 0 0-.926-3.879l-.054-.148.168-.531 3.892-2.019 3.44.455.869 2.488c.161.468.287.815.287.824z" class="cls-12" data-name="Path 349" transform="translate(-1130.642 -3635.408)"/>
                    </g>
                    <g id="Group_409" data-name="Group 409" transform="translate(147.679 83.171)">
                        <path id="Path_350" d="M998.779 3567.218s-1.84-1.362-5.586.108c-3.581 1.405-4.36 3.64-4.36 3.64l-1.045-2.694-.345-4.406.886 10.271-31.674-.108-.544-10.2-.433 7.929s-1.179-2.381-5.135-3.244c-6.325-1.378-5.892 0-5.892 0s3.171-25.566 21.814-25.566l7.748-.127s17.359-.577 24.566 24.397z" class="cls-13" data-name="Path 350" transform="translate(-944.643 -3542.821)"/>
                    </g>
                    <g id="Group_410" data-name="Group 410" transform="translate(177.309 200.835)">
                        <path id="Path_351" d="M1078.018 4030.737l4.391 4.632a4.329 4.329 0 0 1-.706 6.557l-.394.268a4.327 4.327 0 0 1-5.708-.745c-2.739-3.165-6.917-8.017-8.395-9.846-2.271-2.811 1.3-5.081 1.3-5.081z" class="cls-11" data-name="Path 351" transform="translate(-1066.45 -4026.521)"/>
                    </g>
                    <g id="Group_411" data-name="Group 411" transform="translate(196.913 181.627)">
                        <path id="Path_352" d="M1151.039 3947.558l3.422 8.8a3.04 3.04 0 0 1-1.094 3.594 3.04 3.04 0 0 1-4.356-.947l-1.973-3.339z" class="cls-11" data-name="Path 352" transform="translate(-1147.039 -3947.558)"/>
                    </g>
                    <g id="Group_412" data-name="Group 412" transform="translate(167.902 73.077)">
                        <path id="Path_353" d="M1037.406 3502.049l.142 12.556a4.126 4.126 0 0 1-2.477 3.86 5.946 5.946 0 0 1-2.51.431 5.667 5.667 0 0 1-2.886-.794 4.124 4.124 0 0 1-1.9-3.592l.123-6.99 6.876-6.192z" class="cls-11" data-name="Path 353" transform="translate(-1027.776 -3501.328)"/>
                    </g>
                    <g id="Group_413" class="cls-5" data-name="Group 413" transform="translate(166.767 74.593)">
                        <path id="Path_354" d="M1024.3 3518.856a19.713 19.713 0 0 0 8.958-9.557l-.712-1.286-.081-.455-9.352 3.108 1.216 3.784z" class="cls-12" data-name="Path 354" transform="translate(-1023.113 -3507.558)"/>
                    </g>
                    <g id="Group_414" data-name="Group 414" transform="translate(158.917 60.347)">
                        <path id="Path_355" d="M1008.044 3463.243a10.223 10.223 0 0 1-4.144 5.73c-3.547 2.146-9.065 1.981-11.771-1.555-3.084-4.03.141-9.761 1.711-13.734l.191-2.2a15.456 15.456 0 0 1 1.051-1.912c.143-.048 5.639-.621 5.83-.573s11.373 3.871 11.516 3.966 2.724 2.342 2.533 2.629-3.441 7.407-3.441 7.407a23.483 23.483 0 0 0-1.959 2.485z" class="cls-11" data-name="Path 355" transform="translate(-990.842 -3448.997)"/>
                    </g>
                    <g id="Group_417" data-name="Group 417" transform="translate(139.622 133.66)">
                        <g id="Group_415" data-name="Group 415" transform="translate(0 .001)">
                            <path id="Path_356" d="M979.584 3771.527a41.988 41.988 0 0 0-5.76-10.353c-1.523-2.167-3.143-4.3-4.877-6.315q-1.014-1.186-2.082-2.316a.872.872 0 0 0-.333-.219l-4.006-1.469a.865.865 0 0 0-.258-.051c-.812-.039-5.177-.243-7.441-.355-.774-.039-1.3-.066-1.362-.071.015 0 0 .037-.039.1-.236.4-1.384 1.936-2.8 3.783l-1.576-.231-6.7-.98-8.658-1.267-4.821-.706-1.856-.272s-.119.073-.338.212c-.282.18-.73.472-1.3.861-4.481 3.082-16.42 12.3-13.357 21.127 2.63 7.587 24.063 18.454 36.62 24.263a299.24 299.24 0 0 0 8.672 3.858h.007a131.616 131.616 0 0 1-6.327 15.678.862.862 0 0 0-.007.722 7.539 7.539 0 0 0 3.2 3.549 15.6 15.6 0 0 0 6.045 1.255.865.865 0 0 0 .8-.467c.484-.944 1.525-2.97 1.6-3.111q4.079-7.98 8.018-16.031 2.3-4.718 4.52-9.477a94.246 94.246 0 0 0 4.16-9.276 18.955 18.955 0 0 0 .256-12.441zm-19.531 19.667a95.733 95.733 0 0 1-2.678-1.35q-.529-.27-1.134-.6l-.061-.031a9.99 9.99 0 0 1-.287-.153l-.591-.319c-.1-.053-.2-.109-.3-.168a.392.392 0 0 1-.044-.024 128.324 128.324 0 0 1-3.119-1.766 124.162 124.162 0 0 1-2.978-1.805 87.256 87.256 0 0 1-4.551-3.05c-.024-.017-.049-.034-.073-.054a34.844 34.844 0 0 1-8.336-7.68 9.96 9.96 0 0 1-.185-.258 1.75 1.75 0 0 1-.095-.136c-.085-.119-.165-.241-.246-.363-1.294-1.973-.676-4.1.7-5.843a17.336 17.336 0 0 1 2.941-2.817c3.481-2.744 7.213-2.4 10.577-.6 4.045 2.167 7.56 6.437 9.477 9.986 2.873 5.343 2.253 11.337.983 17.032z" class="cls-3" data-name="Path 356" transform="translate(-911.523 -3750.378)"/>
                        </g>
                        <g id="Group_416" data-name="Group 416" transform="translate(41.933)">
                            <path id="Path_357" d="M1083.909 3750.374c-.009-.002-.009-.001 0 0z" class="cls-14" data-name="Path 357" transform="translate(-1083.903 -3750.372)"/>
                        </g>
                    </g>
                    <g id="Group_419" data-name="Group 419" transform="translate(181.276 203.77)">
                        <g id="Group_418" class="cls-15" data-name="Group 418">
                            <path id="Path_358" d="M1082.758 4038.586c.042.061.068.092.068.092z" class="cls-16" data-name="Path 358" transform="translate(-1082.758 -4038.586)"/>
                        </g>
                    </g>
                    <g id="Group_420" data-name="Group 420" transform="translate(151.422 114.482)">
                        <path id="Path_359" d="M960.033 3674.464a2.654 2.654 0 0 1 2.737-2.917c2.487.216 43.138 0 43.138 0s3.352.108 2.811 3.135c-.424 2.374-2.71 13.992-3.676 18.894a2.714 2.714 0 0 1-2.664 2.188h-35.737a2.713 2.713 0 0 1-2.667-2.207c-1.163-6.118-2.225-12.3-3.836-18.314a3.184 3.184 0 0 1-.106-.779z" class="cls-2" data-name="Path 359" transform="translate(-960.033 -3671.537)"/>
                    </g>
                    <g id="Group_421" data-name="Group 421" transform="translate(158.266 50.032)">
                        <path id="Path_360" d="M1010.018 3416.774c3.1 1.081 4.638 2.669 3.921 6.875-.553 3.244-4.177 8-5.805 10a.742.742 0 0 1-1.261-.183l-.855-2.047a.587.587 0 0 1 .331-.78 6 6 0 0 0 3.182-2.661 3.162 3.162 0 0 0 .273-2.65 1.764 1.764 0 0 0-.385-.579c-.987-.977-2.406-.3-3.024.671a6.954 6.954 0 0 0-.849 2.83.447.447 0 0 1-.633.346l-1.128-.527a.444.444 0 0 1-.222-.574c.178-.424.477-1.148.784-1.962a3.645 3.645 0 0 0-1.033-3.706 9.96 9.96 0 0 0-5.527-2.982c-1.618-.3-4.464-.579-5.3 1.273l-.67 1.48s-6.152-5.187-2.482-11.379c5.765-9.735 11.386 2.807 20.683 6.555z" class="cls-3" data-name="Path 360" transform="translate(-988.165 -3406.592)"/>
                    </g>
                    <g id="Group_422" data-name="Group 422" transform="translate(52.435 9.291)">
                        <path id="Path_361" d="M573.439 3241.6s-1.518 10.1-2.991 14.416c-2.018 5.91-7.28 5.478-7.28 5.478s-8.217-6.271-8.541-6.6-1.514-10.6-1.514-10.6l9.839-5.189z" class="cls-11" data-name="Path 361" transform="translate(-553.113 -3239.113)"/>
                    </g>
                    <g id="Group_423" data-name="Group 423" transform="translate(161.145 73.565)">
                        <path id="Path_362" d="M1004.294 3506.675a4.943 4.943 0 0 1-4.245-2.645.487.487 0 0 1 .878-.419 3.876 3.876 0 0 0 4.823 1.854.486.486 0 1 1 .288.929 5.876 5.876 0 0 1-1.744.281z" class="cls-17" data-name="Path 362" transform="translate(-1000.002 -3503.334)"/>
                    </g>
                    <g id="Group_427" data-name="Group 427" transform="translate(172.729 121.839)">
                        <g id="Group_425" data-name="Group 425" transform="translate(.791 3.157)">
                            <path id="Path_364" d="M1055.815 3717.23a2.471 2.471 0 1 1-2.472-2.473 2.442 2.442 0 0 1 .926.181 1.083 1.083 0 0 0-.226.663 1.1 1.1 0 0 0 1.1 1.1 1.072 1.072 0 0 0 .57-.162 2.408 2.408 0 0 1 .102.691z" class="cls-18" data-name="Path 364" transform="translate(-1050.872 -3714.757)"/>
                        </g>
                        <g id="Group_426" data-name="Group 426">
                            <path id="Path_365" d="M1047.62 3701.78l.1.614a2.786 2.786 0 0 0 1.484 2.041l-.1-.514a2.786 2.786 0 0 0-.762-1.424z" class="cls-18" data-name="Path 365" transform="translate(-1047.62 -3701.78)"/>
                        </g>
                    </g>
                    <g id="Group_428" data-name="Group 428" transform="translate(60.763 181.131)">
                        <path id="Path_366" d="M612.511 3958.8c-.679 1.953-2.885 1.389-4.471 1.138-4.6-.727-9.952-1.508-14.544-2.258-.1-.017-.209-.034-.314-.049-1.55-.236-3.367-.36-4.639-1.379a4.241 4.241 0 0 1-1.177-3.126 5.345 5.345 0 0 1 0-.883c.1-1.28.567-2.673.564-3.89a7.558 7.558 0 0 1 .158-1.915c.143-.518.414-.924.924-.927 1.863 0 7.85.18 7.855.18 2.579.858 5.167 2.758 7.529 4.109a23.653 23.653 0 0 1 7.149 5.585 5.945 5.945 0 0 1 .693 1.129 3.1 3.1 0 0 1 .273 2.286z" class="cls-3" data-name="Path 366" transform="translate(-587.347 -3945.518)"/>
                    </g>
                    <g id="Group_429" data-name="Group 429" transform="translate(21.906 174.927)">
                        <path id="Path_367" d="M454.489 3935.878c-.586 1.426-2.27 1.435-3.571 1.268-3.123-.406-6.213-.976-9.353-1.3-3.887-.4-7.784-.691-11.659-1.194a2.624 2.624 0 0 1-2.272-2.515c-.034-1-.032-2.029.029-3.062a18.994 18.994 0 0 1 1.584-6.987 2.97 2.97 0 0 1 1.153-1.362 7.758 7.758 0 0 1 4.469-.662 4.521 4.521 0 0 1 2.729 1.287c.851.8 1.552 1.788 2.484 2.5a54.131 54.131 0 0 0 4.7 2.924c1.705 1.041 3.406 2.092 5.07 3.2 1.284.851 3.649 2.031 4.515 3.649a2.5 2.5 0 0 1 .122 2.254z" class="cls-11" data-name="Path 367" transform="translate(-427.612 -3920.014)"/>
                    </g>
                    <g id="Group_430" data-name="Group 430" transform="translate(48.119 111.648)">
                        <path id="Path_368" d="M553.933 3733.516c-3.1.29-3.817-2.128-4.145-3.172 0 0-.511-4.78-2.17-13.1-1.146-5.748-3.61-10.015-5.687-14.325a65.613 65.613 0 0 1-5.422-15.987 59.933 59.933 0 0 1-.992-8.159c-.078-1.141-.114-2.98-.131-4.357-.01-1.056-.012-1.842-.012-1.842l14.17-12.686 1.467 12.7.783 6.766.995 8.616 4.851 42.03c.185 2.362-.608 3.226-3.707 3.516z" class="cls-11" data-name="Path 368" transform="translate(-535.372 -3659.888)"/>
                    </g>
                    <g id="Group_431" data-name="Group 431" transform="translate(24.513 109.289)">
                        <path id="Path_369" d="M460.579 3650.188l-2.99 14.464-.975 4.727-2.053 9.927-8.271 40c-.567 2.3-1.591 2.875-4.624 2.177a4 4 0 0 1-3.335-4.2s1.075-4.714 2.109-13.136c.713-5.816.044-10.738-.579-15.481a68.938 68.938 0 0 1-.545-12.209 58.191 58.191 0 0 1 2.024-12.73c.3-1.2.917-3.165 1.343-4.5.268-.839.462-1.43.462-1.43z" class="cls-11" data-name="Path 369" transform="translate(-438.33 -3650.188)"/>
                    </g>
                    <g id="Group_434" data-name="Group 434" transform="translate(57.942 35.202)">
                        <g id="Group_433" data-name="Group 433">
                            <g id="Group_432" class="cls-19" data-name="Group 432">
                                <path id="Rectangle_239" d="M0 0h.221v.817H0z" class="cls-6" data-name="Rectangle 239"/>
                                <path id="Rectangle_240" d="M0 0h.005v.817H0z" class="cls-6" data-name="Rectangle 240" transform="translate(.221)"/>
                                <path id="Rectangle_241" d="M0 0h.005v.817H0z" class="cls-20" data-name="Rectangle 241" transform="translate(.226)"/>
                                <path id="Rectangle_242" d="M0 0h.005v.817H0z" class="cls-21" data-name="Rectangle 242" transform="translate(.232)"/>
                                <path id="Rectangle_243" d="M0 0h.005v.817H0z" class="cls-22" data-name="Rectangle 243" transform="translate(.237)"/>
                                <path id="Rectangle_244" d="M0 0h.005v.817H0z" class="cls-23" data-name="Rectangle 244" transform="translate(.243)"/>
                                <path id="Rectangle_245" d="M0 0h.005v.817H0z" class="cls-24" data-name="Rectangle 245" transform="translate(.248)"/>
                                <path id="Rectangle_246" d="M0 0h.005v.817H0z" class="cls-25" data-name="Rectangle 246" transform="translate(.253)"/>
                                <path id="Rectangle_247" d="M0 0h.005v.817H0z" class="cls-26" data-name="Rectangle 247" transform="translate(.259)"/>
                                <path id="Rectangle_248" d="M0 0h.005v.817H0z" class="cls-27" data-name="Rectangle 248" transform="translate(.264)"/>
                                <path id="Rectangle_249" d="M0 0h.005v.817H0z" class="cls-28" data-name="Rectangle 249" transform="translate(.27)"/>
                                <path id="Rectangle_250" d="M0 0h.005v.817H0z" class="cls-29" data-name="Rectangle 250" transform="translate(.275)"/>
                                <path id="Rectangle_251" d="M0 0h.005v.817H0z" class="cls-30" data-name="Rectangle 251" transform="translate(.281)"/>
                                <path id="Rectangle_252" d="M0 0h.005v.817H0z" class="cls-31" data-name="Rectangle 252" transform="translate(.286)"/>
                                <path id="Rectangle_253" d="M0 0h.005v.817H0z" class="cls-32" data-name="Rectangle 253" transform="translate(.292)"/>
                                <path id="Rectangle_254" d="M0 0h.005v.817H0z" class="cls-33" data-name="Rectangle 254" transform="translate(.297)"/>
                                <path id="Rectangle_255" d="M0 0h.005v.817H0z" class="cls-34" data-name="Rectangle 255" transform="translate(.302)"/>
                                <path id="Rectangle_256" d="M0 0h.005v.817H0z" class="cls-35" data-name="Rectangle 256" transform="translate(.308)"/>
                                <path id="Rectangle_257" d="M0 0h.005v.817H0z" class="cls-36" data-name="Rectangle 257" transform="translate(.313)"/>
                                <path id="Rectangle_258" d="M0 0h.005v.817H0z" class="cls-37" data-name="Rectangle 258" transform="translate(.319)"/>
                                <path id="Rectangle_259" d="M0 0h.005v.817H0z" class="cls-38" data-name="Rectangle 259" transform="translate(.324)"/>
                                <path id="Rectangle_260" d="M0 0h.005v.817H0z" class="cls-39" data-name="Rectangle 260" transform="translate(.33)"/>
                                <path id="Rectangle_261" d="M0 0h.005v.817H0z" class="cls-40" data-name="Rectangle 261" transform="translate(.335)"/>
                                <path id="Rectangle_262" d="M0 0h.005v.817H0z" class="cls-41" data-name="Rectangle 262" transform="translate(.341)"/>
                                <path id="Rectangle_263" d="M0 0h.005v.817H0z" class="cls-42" data-name="Rectangle 263" transform="translate(.346)"/>
                                <path id="Rectangle_264" d="M0 0h.005v.817H0z" class="cls-43" data-name="Rectangle 264" transform="translate(.351)"/>
                                <path id="Rectangle_265" d="M0 0h.005v.817H0z" class="cls-44" data-name="Rectangle 265" transform="translate(.357)"/>
                                <path id="Rectangle_266" d="M0 0h.005v.817H0z" class="cls-45" data-name="Rectangle 266" transform="translate(.362)"/>
                                <path id="Rectangle_267" d="M0 0h.005v.817H0z" class="cls-46" data-name="Rectangle 267" transform="translate(.368)"/>
                                <path id="Rectangle_268" d="M0 0h.005v.817H0z" class="cls-47" data-name="Rectangle 268" transform="translate(.373)"/>
                                <path id="Rectangle_269" d="M0 0h.005v.817H0z" class="cls-48" data-name="Rectangle 269" transform="translate(.379)"/>
                                <path id="Rectangle_270" d="M0 0h.005v.817H0z" class="cls-49" data-name="Rectangle 270" transform="translate(.384)"/>
                                <path id="Rectangle_271" d="M0 0h.005v.817H0z" class="cls-50" data-name="Rectangle 271" transform="translate(.39)"/>
                                <path id="Rectangle_272" d="M0 0h.005v.817H0z" class="cls-51" data-name="Rectangle 272" transform="translate(.395)"/>
                                <path id="Rectangle_273" d="M0 0h.005v.817H0z" class="cls-52" data-name="Rectangle 273" transform="translate(.4)"/>
                                <path id="Rectangle_274" d="M0 0h.005v.817H0z" class="cls-53" data-name="Rectangle 274" transform="translate(.406)"/>
                                <path id="Rectangle_275" d="M0 0h.005v.817H0z" class="cls-54" data-name="Rectangle 275" transform="translate(.411)"/>
                                <path id="Rectangle_276" d="M0 0h.005v.817H0z" class="cls-55" data-name="Rectangle 276" transform="translate(.417)"/>
                                <path id="Rectangle_277" d="M0 0h.005v.817H0z" class="cls-56" data-name="Rectangle 277" transform="translate(.422)"/>
                                <path id="Rectangle_278" d="M0 0h.005v.817H0z" class="cls-57" data-name="Rectangle 278" transform="translate(.428)"/>
                                <path id="Rectangle_279" d="M0 0h.005v.817H0z" class="cls-58" data-name="Rectangle 279" transform="translate(.433)"/>
                                <path id="Rectangle_280" d="M0 0h.005v.817H0z" class="cls-59" data-name="Rectangle 280" transform="translate(.439)"/>
                                <path id="Rectangle_281" d="M0 0h.005v.817H0z" class="cls-60" data-name="Rectangle 281" transform="translate(.444)"/>
                                <path id="Rectangle_282" d="M0 0h.005v.817H0z" class="cls-60" data-name="Rectangle 282" transform="translate(.45)"/>
                                <path id="Path_370" d="M577.622 3346.445z" class="cls-60" data-name="Path 370" transform="translate(-577.167 -3345.628)"/>
                            </g>
                        </g>
                    </g>
                    <g id="Group_437" class="cls-5" data-name="Group 437" transform="translate(25.499 118.326)">
                        <g id="Group_435" data-name="Group 435" transform="translate(22.633 5.242)">
                            <path id="Path_372" d="M552.825 3725.05c-5.588 1.258-13.7-.433-16.279-1.039a59.95 59.95 0 0 1-.992-8.159c-.078-1.141-.114-2.98-.131-4.357 5.627-1.024 14.355-2.608 14.574-2.608a6.1 6.1 0 0 1 1.051.781l.783 6.765z" class="cls-12" data-name="Path 372" transform="translate(-535.422 -3708.888)"/>
                        </g>
                        <g id="Group_436" data-name="Group 436">
                            <path id="Path_373" d="M460.656 3692.765l-.975 4.727-2.053 9.927c-4.753.662-11.856-1.615-15.245-2.851a58.2 58.2 0 0 1 2.024-12.73c.3-1.2.917-3.165 1.343-4.5l14.489 4.486s.166.348.417.941z" class="cls-12" data-name="Path 373" transform="translate(-442.382 -3687.338)"/>
                        </g>
                    </g>
                    <g id="Group_438" data-name="Group 438" transform="translate(76.761 26.72)">
                        <path id="Path_374" d="M661.654 3326.847l5.231 1.258a6.8 6.8 0 0 0 5.933-1.378c4.3-3.567 12.8-10.747 16.186-13.613.988-.836 2.195-1.971 3.479-2.129 2.521-.31 12.574-.225 15.8-.175.434.007.6 1.175.243 1.419 0 0-7.421 2.763-9.621 2.771-1.845.007-4.12.034-5.921.115a3.14 3.14 0 0 0-2.275 1.131l-16.737 20.138a7.21 7.21 0 0 1-6.59 2.526l-9.294-1.36-4.973-4.649 6.866-6.541z" class="cls-11" data-name="Path 374" transform="translate(-653.113 -3310.76)"/>
                    </g>
                    <g id="Group_439" data-name="Group 439" transform="translate(28.457 34.909)">
                        <path id="Path_375" d="M509.091 3363.032a2.322 2.322 0 0 1-1.866.5s-7.084-1.129-7.093-1.129a8.036 8.036 0 0 0-2.768.141h-.01c-.01 0-.029.01-.058.017s-.034.01-.053.017a.346.346 0 0 0-.066.022h-.017l-.1.036c-1.416.555-1.5 2.056-1.542 3.452-.061 1.921-.151 3.977-1.289 5.612a17.965 17.965 0 0 1-2.693 2.586 5.369 5.369 0 0 0-1.406 2.62 45.83 45.83 0 0 0-.778 3.25c-.426 2.1-.72 4.223-.973 6.352a8.654 8.654 0 0 1-2.542 5.2 16.638 16.638 0 0 1-4.59.971c-5.6.712-14.817 1.029-19.376-1.547a38.807 38.807 0 0 1-2.968-1.852 22.482 22.482 0 0 1-4.362-3.792c.039-.056.078-.109.112-.168a11.325 11.325 0 0 0 1.126-3.559c4.761-6.515 21.5-29.812 21.876-30.091.316-.241 4.211-4.172 6.371-6.14.163-.148.314-.285.455-.409.53-.467.89-.742.958-.7.178.12 2.569.562 4.69.939.066.012.129.021.192.034a38.773 38.773 0 0 1 6.223 1.645l13.445 4.777a2.4 2.4 0 0 1 1.589 2.061c.193 2.394.154 6.897-2.487 9.155z" class="cls-9" data-name="Path 375" transform="translate(-454.542 -3344.427)"/>
                    </g>
                    <g id="Group_440" data-name="Group 440" transform="translate(11.818 72.394)">
                        <path id="Path_376" d="M436.491 3504.179a32.99 32.99 0 0 1-14.307.865c-8.253-1.225-18.452-6.523-18.452-6.523l-17.3 44.363s-5.267 10.231 29.083 14.92c36.435 4.973 32.867-5.622 32.867-5.622z" class="cls-3" data-name="Path 376" transform="translate(-386.144 -3498.521)"/>
                    </g>
                    <g id="Group_441" data-name="Group 441" transform="translate(114.818 24.719)">
                        <path id="Path_377" d="M809.558 3305.236s2.2-2.162 2.342-2.2c.094-.024 4.314-.3 7.267-.5a.423.423 0 0 1 .177.817l-3.156 1.2-.649 1.55z" class="cls-11" data-name="Path 377" transform="translate(-809.558 -3302.538)"/>
                    </g>
                    <g id="Group_445" data-name="Group 445">
                        <path id="Path_424" d="M410.921 3211.663a13.874 13.874 0 0 1-4.9 6.09 11.036 11.036 0 0 1-2.947 1.468 8.572 8.572 0 0 1-2.489.511c-.841 0-.965-.6-1.583-.978a1.932 1.932 0 0 0-1.576-.218c-2.345.737-1.54 4.4-.324 5.675a2.723 2.723 0 0 0 .912.679c.368.14.677-.248 1.047-.165.449.1.561.657.647 1.036.4 1.771 1.03 3.5 1.269 5.305a15.146 15.146 0 0 1-.022 4.4 11.02 11.02 0 0 1-1.715 4.415 12.175 12.175 0 0 1-4.229 3.754q-.323.179-.654.344a19.3 19.3 0 0 0-9.618 10.448c-2.041 5.43-1.591 12.008-6.622 15.79-4.033 3.031-9.451 3.8-14.352 4.06a56.664 56.664 0 0 1-24.5-4.139c-.815-.338-2.707-1.48-1.03-2.134a58.36 58.36 0 0 0 19.76-12.35c2.841-2.788 5.323-4.919 7.245-8.413 1.98-3.6 1.833-8.69 3.351-12.487a28.6 28.6 0 0 1 4.723-7.138c2.973-3.657 5.724-7.542 7.106-12.105.764-2.525 1.16-5.179 2.707-7.388 6.023-8.59 20.412-10.127 26.849-1.16a6.753 6.753 0 0 1 1.175 2.72 3.876 3.876 0 0 1-.23 1.98z" class="cls-3" data-name="Path 424" transform="translate(-337.561 -3200.92)"/>
                    </g>
                    <g id="Group_446" data-name="Group 446" transform="translate(62.345 18.84)">
                        <path id="Path_425" d="M593.852 3278.368v.005z" class="cls-62" data-name="Path 425" transform="translate(-593.852 -3278.368)"/>
                    </g>
                    <g id="Group_447" data-name="Group 447" transform="translate(73.511 10.803)">
                        <path id="Path_426" d="M639.759 3245.33l-.007.01v-.012z" class="cls-62" data-name="Path 426" transform="translate(-639.752 -3245.328)"/>
                    </g>
                    <g id="Group_450" data-name="Group 450" transform="translate(61.275 81.637)">
                        <g id="Group_449" data-name="Group 449">
                            <g id="Group_448" class="cls-63" data-name="Group 448">
                                <path id="Path_427" d="M589.452 3536.615l.032-.012v.016h-.032z" class="cls-6" data-name="Path 427" transform="translate(-589.452 -3536.582)"/>
                                <path id="Path_428" d="M589.452 3536.614l.032-.012-.032.012z" class="cls-6" data-name="Path 428" transform="translate(-589.452 -3536.581)"/>
                                <path id="Path_429" d="M589.452 3536.612l.032-.012-.032.012z" class="cls-20" data-name="Path 429" transform="translate(-589.452 -3536.58)"/>
                                <path id="Path_430" d="M589.452 3536.611l.032-.012-.032.012z" class="cls-21" data-name="Path 430" transform="translate(-589.452 -3536.579)"/>
                                <path id="Path_431" d="M589.452 3536.61l.032-.012-.032.012z" class="cls-22" data-name="Path 431" transform="translate(-589.452 -3536.579)"/>
                                <path id="Path_432" d="M589.452 3536.609l.032-.012-.032.012z" class="cls-64" data-name="Path 432" transform="translate(-589.452 -3536.578)"/>
                                <path id="Path_433" d="M589.452 3536.608l.032-.012-.032.012z" class="cls-65" data-name="Path 433" transform="translate(-589.452 -3536.577)"/>
                                <path id="Path_434" d="M589.452 3536.607l.032-.012-.032.012z" class="cls-25" data-name="Path 434" transform="translate(-589.452 -3536.576)"/>
                                <path id="Path_435" d="M589.452 3536.605l.032-.012-.032.012z" class="cls-66" data-name="Path 435" transform="translate(-589.452 -3536.575)"/>
                                <path id="Path_436" d="M589.452 3536.6l.032-.012-.032.012z" class="cls-67" data-name="Path 436" transform="translate(-589.452 -3536.574)"/>
                                <path id="Path_437" d="M589.452 3536.6l.032-.012-.032.012z" class="cls-68" data-name="Path 437" transform="translate(-589.452 -3536.574)"/>
                                <path id="Path_438" d="M589.452 3536.6l.032-.012-.032.012z" class="cls-69" data-name="Path 438" transform="translate(-589.452 -3536.572)"/>
                                <path id="Path_439" d="M589.452 3536.6l.032-.012-.032.012z" class="cls-70" data-name="Path 439" transform="translate(-589.452 -3536.571)"/>
                                <path id="Path_440" d="M589.452 3536.6l.032-.013-.032.012z" class="cls-71" data-name="Path 440" transform="translate(-589.452 -3536.571)"/>
                                <path id="Path_441" d="M589.452 3536.6l.032-.012-.032.012z" class="cls-72" data-name="Path 441" transform="translate(-589.452 -3536.57)"/>
                                <path id="Path_442" d="M589.452 3536.6l.032-.012-.032.012z" class="cls-73" data-name="Path 442" transform="translate(-589.452 -3536.569)"/>
                                <path id="Path_443" d="M589.452 3536.6l.032-.012-.032.012z" class="cls-74" data-name="Path 443" transform="translate(-589.452 -3536.568)"/>
                                <path id="Path_444" d="M589.452 3536.6l.032-.012-.032.012z" class="cls-75" data-name="Path 444" transform="translate(-589.452 -3536.567)"/>
                                <path id="Path_445" d="M589.452 3536.594l.032-.012-.032.012z" class="cls-76" data-name="Path 445" transform="translate(-589.452 -3536.567)"/>
                                <path id="Path_446" d="M589.452 3536.593l.032-.012-.032.012z" class="cls-77" data-name="Path 446" transform="translate(-589.452 -3536.565)"/>
                                <path id="Path_447" d="M589.452 3536.592l.032-.012-.032.012z" class="cls-78" data-name="Path 447" transform="translate(-589.452 -3536.565)"/>
                                <path id="Path_448" d="M589.452 3536.591l.032-.012-.032.012z" class="cls-79" data-name="Path 448" transform="translate(-589.452 -3536.564)"/>
                                <path id="Path_449" d="M589.452 3536.59l.032-.012-.032.012z" class="cls-80" data-name="Path 449" transform="translate(-589.452 -3536.563)"/>
                                <path id="Path_450" d="M589.452 3536.589l.032-.012-.032.012z" class="cls-81" data-name="Path 450" transform="translate(-589.452 -3536.562)"/>
                                <path id="Path_451" d="M589.452 3536.587l.032-.012-.032.012z" class="cls-82" data-name="Path 451" transform="translate(-589.452 -3536.561)"/>
                                <path id="Path_452" d="M589.452 3536.586l.032-.012-.032.012z" class="cls-83" data-name="Path 452" transform="translate(-589.452 -3536.561)"/>
                                <path id="Path_453" d="M589.452 3536.585l.032-.012-.032.012z" class="cls-84" data-name="Path 453" transform="translate(-589.452 -3536.56)"/>
                                <path id="Path_454" d="M589.452 3536.584l.032-.012-.032.012z" class="cls-85" data-name="Path 454" transform="translate(-589.452 -3536.559)"/>
                                <path id="Path_455" d="M589.452 3536.583l.032-.012-.032.012z" class="cls-86" data-name="Path 455" transform="translate(-589.452 -3536.558)"/>
                                <path id="Path_456" d="M589.452 3536.582l.032-.012-.032.012z" class="cls-87" data-name="Path 456" transform="translate(-589.452 -3536.557)"/>
                                <path id="Path_457" d="M589.452 3536.58l.032-.012-.032.012z" class="cls-88" data-name="Path 457" transform="translate(-589.452 -3536.556)"/>
                                <path id="Path_458" d="M589.452 3536.58l.032-.012-.032.012z" class="cls-89" data-name="Path 458" transform="translate(-589.452 -3536.555)"/>
                                <path id="Path_459" d="M589.452 3536.578l.032-.012-.032.012z" class="cls-90" data-name="Path 459" transform="translate(-589.452 -3536.554)"/>
                                <path id="Path_460" d="M589.452 3536.577l.032-.012-.032.012z" class="cls-91" data-name="Path 460" transform="translate(-589.452 -3536.553)"/>
                                <path id="Path_461" d="M589.452 3536.576l.032-.012-.032.012z" class="cls-92" data-name="Path 461" transform="translate(-589.452 -3536.552)"/>
                                <path id="Path_462" d="M589.452 3536.575l.032-.012-.032.012z" class="cls-93" data-name="Path 462" transform="translate(-589.452 -3536.552)"/>
                                <path id="Path_463" d="M589.452 3536.573l.032-.012-.032.012z" class="cls-94" data-name="Path 463" transform="translate(-589.452 -3536.551)"/>
                                <path id="Path_464" d="M589.452 3536.573l.032-.012-.032.012z" class="cls-95" data-name="Path 464" transform="translate(-589.452 -3536.55)"/>
                                <path id="Path_465" d="M589.452 3536.571l.032-.012-.032.012z" class="cls-96" data-name="Path 465" transform="translate(-589.452 -3536.549)"/>
                                <path id="Path_466" d="M589.452 3536.57l.032-.012-.032.012z" class="cls-97" data-name="Path 466" transform="translate(-589.452 -3536.548)"/>
                                <path id="Path_467" d="M589.452 3536.569l.032-.012-.032.012z" class="cls-98" data-name="Path 467" transform="translate(-589.452 -3536.547)"/>
                                <path id="Path_468" d="M589.452 3536.568l.032-.012-.032.012z" class="cls-99" data-name="Path 468" transform="translate(-589.452 -3536.547)"/>
                                <path id="Path_469" d="M589.452 3536.567l.032-.012-.032.012z" class="cls-100" data-name="Path 469" transform="translate(-589.452 -3536.546)"/>
                                <path id="Path_470" d="M589.452 3536.566l.032-.012-.032.012z" class="cls-101" data-name="Path 470" transform="translate(-589.452 -3536.545)"/>
                                <path id="Path_471" d="M589.452 3536.565l.032-.012-.032.012z" class="cls-102" data-name="Path 471" transform="translate(-589.452 -3536.544)"/>
                                <path id="Path_472" d="M589.452 3536.563l.032-.012-.032.012z" class="cls-103" data-name="Path 472" transform="translate(-589.452 -3536.543)"/>
                                <path id="Path_473" d="M589.452 3536.562l.032-.012-.032.012z" class="cls-104" data-name="Path 473" transform="translate(-589.452 -3536.542)"/>
                                <path id="Path_474" d="M589.452 3536.561l.032-.012-.032.012z" class="cls-105" data-name="Path 474" transform="translate(-589.452 -3536.541)"/>
                                <path id="Path_475" d="M589.452 3536.56l.032-.012-.032.012z" class="cls-106" data-name="Path 475" transform="translate(-589.452 -3536.541)"/>
                                <path id="Path_476" d="M589.452 3536.559l.032-.012-.032.012z" class="cls-107" data-name="Path 476" transform="translate(-589.452 -3536.54)"/>
                                <path id="Path_477" d="M589.452 3536.558l.032-.012-.032.012z" class="cls-108" data-name="Path 477" transform="translate(-589.452 -3536.539)"/>
                                <path id="Path_478" d="M589.452 3536.557l.032-.012-.032.012z" class="cls-109" data-name="Path 478" transform="translate(-589.452 -3536.538)"/>
                                <path id="Path_479" d="M589.452 3536.556l.032-.012-.032.012z" class="cls-110" data-name="Path 479" transform="translate(-589.452 -3536.537)"/>
                                <path id="Path_480" d="M589.452 3536.554l.032-.012-.032.012z" class="cls-111" data-name="Path 480" transform="translate(-589.452 -3536.536)"/>
                                <path id="Path_481" d="M589.452 3536.553l.032-.012-.032.012z" class="cls-112" data-name="Path 481" transform="translate(-589.452 -3536.535)"/>
                                <path id="Path_482" d="M589.452 3536.552l.032-.012-.032.012z" class="cls-113" data-name="Path 482" transform="translate(-589.452 -3536.534)"/>
                                <path id="Path_483" d="M589.452 3536.551l.032-.012-.032.012z" class="cls-114" data-name="Path 483" transform="translate(-589.452 -3536.534)"/>
                                <path id="Path_484" d="M589.452 3536.55l.032-.012-.032.012z" class="cls-115" data-name="Path 484" transform="translate(-589.452 -3536.532)"/>
                                <path id="Path_485" d="M589.452 3536.549l.032-.012-.032.012z" class="cls-116" data-name="Path 485" transform="translate(-589.452 -3536.532)"/>
                                <path id="Path_486" d="M589.452 3536.547l.032-.012-.032.012z" class="cls-117" data-name="Path 486" transform="translate(-589.452 -3536.531)"/>
                                <path id="Path_487" d="M589.452 3536.546l.032-.012-.032.012z" class="cls-118" data-name="Path 487" transform="translate(-589.452 -3536.53)"/>
                                <path id="Path_488" d="M589.452 3536.545l.032-.012-.032.012z" class="cls-119" data-name="Path 488" transform="translate(-589.452 -3536.529)"/>
                                <path id="Path_489" d="M589.452 3536.544l.032-.012-.032.012z" class="cls-120" data-name="Path 489" transform="translate(-589.452 -3536.529)"/>
                                <path id="Path_490" d="M589.452 3536.543l.032-.012-.032.012z" class="cls-121" data-name="Path 490" transform="translate(-589.452 -3536.528)"/>
                                <path id="Path_491" d="M589.452 3536.542l.032-.012-.032.012z" class="cls-122" data-name="Path 491" transform="translate(-589.452 -3536.527)"/>
                                <path id="Path_492" d="M589.452 3536.54l.032-.012-.032.012z" class="cls-123" data-name="Path 492" transform="translate(-589.452 -3536.526)"/>
                                <path id="Path_493" d="M589.452 3536.539l.032-.012-.032.012z" class="cls-124" data-name="Path 493" transform="translate(-589.452 -3536.525)"/>
                                <path id="Path_494" d="M589.452 3536.538l.032-.012-.032.012z" class="cls-125" data-name="Path 494" transform="translate(-589.452 -3536.524)"/>
                                <path id="Path_495" d="M589.452 3536.537l.032-.012-.032.012z" class="cls-126" data-name="Path 495" transform="translate(-589.452 -3536.523)"/>
                                <path id="Path_496" d="M589.452 3536.536l.032-.012-.032.012z" class="cls-127" data-name="Path 496" transform="translate(-589.452 -3536.523)"/>
                                <path id="Path_497" d="M589.452 3536.535l.032-.012-.032.012z" class="cls-128" data-name="Path 497" transform="translate(-589.452 -3536.522)"/>
                                <path id="Path_498" d="M589.452 3536.534l.032-.012-.032.012z" class="cls-129" data-name="Path 498" transform="translate(-589.452 -3536.521)"/>
                                <path id="Path_499" d="M589.452 3536.532l.032-.012-.032.012z" class="cls-130" data-name="Path 499" transform="translate(-589.452 -3536.52)"/>
                                <path id="Path_500" d="M589.452 3536.531l.032-.012-.032.012z" class="cls-131" data-name="Path 500" transform="translate(-589.452 -3536.519)"/>
                                <path id="Path_501" d="M589.452 3536.53l.032-.012-.032.012z" class="cls-132" data-name="Path 501" transform="translate(-589.452 -3536.518)"/>
                                <path id="Path_502" d="M589.452 3536.53l.031-.012-.032.012z" class="cls-133" data-name="Path 502" transform="translate(-589.452 -3536.518)"/>
                                <path id="Path_503" d="M589.452 3536.53l.031-.012-.031.012z" class="cls-134" data-name="Path 503" transform="translate(-589.452 -3536.518)"/>
                                <path id="Path_504" d="M589.452 3536.529l.03-.011-.031.012z" class="cls-135" data-name="Path 504" transform="translate(-589.452 -3536.518)"/>
                                <path id="Path_505" d="M589.452 3536.529l.029-.011-.03.011z" class="cls-136" data-name="Path 505" transform="translate(-589.452 -3536.518)"/>
                                <path id="Path_506" d="M589.452 3536.529l.028-.011-.029.011z" class="cls-137" data-name="Path 506" transform="translate(-589.452 -3536.518)"/>
                                <path id="Path_507" d="M589.452 3536.528l.028-.011-.028.011z" class="cls-138" data-name="Path 507" transform="translate(-589.452 -3536.518)"/>
                                <path id="Path_508" d="M589.452 3536.528l.027-.01-.028.011z" class="cls-139" data-name="Path 508" transform="translate(-589.452 -3536.518)"/>
                                <path id="Path_509" d="M589.452 3536.528l.026-.01-.027.01z" class="cls-140" data-name="Path 509" transform="translate(-589.452 -3536.518)"/>
                                <path id="Path_510" d="M589.452 3536.528l.026-.01-.026.01z" class="cls-141" data-name="Path 510" transform="translate(-589.452 -3536.518)"/>
                                <path id="Path_511" d="M589.452 3536.527l.025-.01-.026.01z" class="cls-142" data-name="Path 511" transform="translate(-589.452 -3536.518)"/>
                                <path id="Path_512" d="M589.452 3536.527l.024-.009-.025.01z" class="cls-143" data-name="Path 512" transform="translate(-589.452 -3536.518)"/>
                                <path id="Path_513" d="M589.452 3536.527l.023-.009-.024.009z" class="cls-144" data-name="Path 513" transform="translate(-589.452 -3536.518)"/>
                                <path id="Path_514" d="M589.452 3536.526l.023-.009-.023.009z" class="cls-145" data-name="Path 514" transform="translate(-589.452 -3536.518)"/>
                                <path id="Path_515" d="M589.452 3536.526l.022-.009-.023.009z" class="cls-146" data-name="Path 515" transform="translate(-589.452 -3536.518)"/>
                                <path id="Path_516" d="M589.452 3536.526l.021-.008-.022.009z" class="cls-147" data-name="Path 516" transform="translate(-589.452 -3536.518)"/>
                                <path id="Path_517" d="M589.452 3536.526l.02-.008-.021.008z" class="cls-148" data-name="Path 517" transform="translate(-589.452 -3536.518)"/>
                                <path id="Path_518" d="M589.452 3536.525l.02-.008-.02.008z" class="cls-149" data-name="Path 518" transform="translate(-589.452 -3536.518)"/>
                                <path id="Path_519" d="M589.452 3536.525l.019-.007-.02.008z" class="cls-149" data-name="Path 519" transform="translate(-589.452 -3536.518)"/>
                                <path id="Path_520" d="M589.452 3536.525l.018-.007-.019.007z" class="cls-150" data-name="Path 520" transform="translate(-589.452 -3536.518)"/>
                                <path id="Path_521" d="M589.452 3536.525l.018-.007-.018.007z" class="cls-151" data-name="Path 521" transform="translate(-589.452 -3536.518)"/>
                                <path id="Path_522" d="M589.452 3536.524l.017-.007-.018.007z" class="cls-151" data-name="Path 522" transform="translate(-589.452 -3536.518)"/>
                                <path id="Path_523" d="M589.452 3536.524l.016-.006-.017.007z" class="cls-152" data-name="Path 523" transform="translate(-589.452 -3536.518)"/>
                                <path id="Path_524" d="M589.452 3536.524l.015-.006-.016.006z" class="cls-152" data-name="Path 524" transform="translate(-589.452 -3536.518)"/>
                                <path id="Path_525" d="M589.468 3536.518l-.015.006v-.006z" class="cls-152" data-name="Path 525" transform="translate(-589.452 -3536.518)"/>
                            </g>
                        </g>
                    </g>
                    <g id="Group_451" data-name="Group 451" transform="translate(60.763 187.862)">
                        <path id="Path_527" d="M612.511 3979.744c-.679 1.954-2.885 1.389-4.471 1.138-4.6-.727-9.952-1.508-14.544-2.257-.1-.017-.209-.034-.314-.049-1.55-.236-3.367-.36-4.639-1.379a4.24 4.24 0 0 1-1.177-3.126 5.345 5.345 0 0 1 0-.883c.747.418 4.724 2.454 11.655 2.793 7.612.375 13.7 4.1 13.219 1.479a3.1 3.1 0 0 1 .271 2.284z" class="cls-14" data-name="Path 527" transform="translate(-587.347 -3973.188)"/>
                    </g>
                    <g id="Group_452" data-name="Group 452" transform="translate(21.906 183.989)">
                        <path id="Path_528" d="M454.489 3964.07c-.586 1.426-2.27 1.435-3.571 1.267-3.123-.406-6.213-.975-9.353-1.3-3.887-.4-7.784-.691-11.659-1.194a2.624 2.624 0 0 1-2.272-2.515c-.034-1-.032-2.029.029-3.062.562.645 3.158 3.206 9.018 3.206 6.614 0 16.444 3.792 17.685 1.343a2.5 2.5 0 0 1 .123 2.255z" class="cls-14" data-name="Path 528" transform="translate(-427.612 -3957.268)"/>
                    </g>
                    <g id="Group_453" data-name="Group 453" transform="translate(71.21 53.028)">
                        <path id="Path_529" d="M630.35 3418.908c-.01 0-.029.01-.058.017l.058-.017z" class="cls-153" data-name="Path 529" transform="translate(-630.292 -3418.908)"/>
                    </g>
                </g>
            </g>
        </g>
    </g>
</svg>
